<svg xmlns="http://www.w3.org/2000/svg" height="18" viewBox="0 0 18 18" width="18">
  <defs>
    <style>
      .a {
        fill: #6E6E6E;
      }
    </style>
  </defs>
  <title>S Tips 18 N</title>
  <rect id="Canvas" fill="#ff13dc" opacity="0" width="18" height="18" /><path class="a" d="M14.4,5.3065A5.286,5.286,0,0,0,8.993.15,5.674,5.674,0,0,0,7.9085.255,5.51649,5.51649,0,0,0,3.6,5.345C3.6,8.074,6,9.522,6,12v1h6V12C12,9.5,14.4,7.976,14.4,5.3065Z" />
  <path class="a" d="M6,14v1.1835a.75.75,0,0,0,.1795.4865l1.762,2.0665A.75.75,0,0,0,8.5125,18H9.488a.75.75,0,0,0,.5705-.2635L11.821,15.67A.75005.75005,0,0,0,12,15.1835V14Z" />
</svg>