<svg width="95" height="32" viewBox="0 0 95 32" fill="none" xmlns="http://www.w3.org/2000/svg">
<g clip-path="url(#clip0_1_2)">
<path d="M13.2 0H80.875C88.167 0 94.075 7.163 94.075 16C94.075 24.837 88.163 32 80.875 32H13.2C5.912 32 0 24.837 0 16C0 7.163 5.912 0 13.2 0Z" fill="#0265DC"/>
<path d="M17.58 20H12.176C12.064 20 12.036 19.958 12.036 19.86V10.928C12.036 10.858 12.064 10.802 12.148 10.802H13.646C13.702 10.802 13.73 10.844 13.73 10.9V18.474H17.846C17.93 18.474 17.958 18.516 17.944 18.572L17.706 19.888C17.692 19.986 17.65 20 17.58 20ZM23.0937 16.934H20.2517C20.2937 17.914 20.9377 18.698 22.3657 18.698C22.9957 18.698 23.5697 18.586 24.1017 18.362C24.1437 18.334 24.1857 18.348 24.1857 18.418V19.58C24.1857 19.664 24.1577 19.706 24.1017 19.734C23.5697 19.986 22.9537 20.14 22.0017 20.14C19.4537 20.14 18.5437 18.348 18.5437 16.626C18.5437 14.68 19.7197 12.958 21.8337 12.958C23.9057 12.958 24.7037 14.582 24.7037 15.912C24.7037 16.304 24.6897 16.626 24.6477 16.78C24.6337 16.836 24.6057 16.864 24.5357 16.878C24.3397 16.92 23.7797 16.934 23.0937 16.934ZM20.2517 15.73H22.3377C22.8697 15.73 23.0517 15.73 23.1077 15.716C23.1077 15.674 23.1077 15.618 23.1077 15.604C23.1077 15.198 22.8277 14.302 21.7637 14.302C20.7977 14.302 20.3637 15.044 20.2517 15.73ZM29.547 18.642V16.92C29.337 16.892 29.099 16.878 28.777 16.878C27.671 16.878 27.181 17.242 27.181 17.844C27.181 18.362 27.545 18.81 28.553 18.81C28.917 18.81 29.239 18.768 29.547 18.642ZM31.185 15.73V18.572C31.185 18.88 31.185 19.16 31.213 19.454C31.213 19.482 31.213 19.496 31.185 19.51C30.037 20 29.225 20.14 28.273 20.14C26.747 20.14 25.529 19.426 25.529 17.844C25.529 16.36 26.859 15.618 28.679 15.618C29.099 15.618 29.421 15.632 29.547 15.646V15.478C29.547 15.156 29.365 14.428 28.133 14.428C27.433 14.428 26.817 14.568 26.299 14.82C26.257 14.834 26.187 14.82 26.187 14.736V13.518C26.187 13.448 26.201 13.42 26.271 13.378C26.873 13.098 27.643 12.958 28.399 12.958C30.345 12.958 31.185 14.176 31.185 15.73ZM32.9644 13.098H34.2804C34.3644 13.098 34.4064 13.126 34.4344 13.21C34.5044 13.392 34.5604 13.742 34.5744 14.05C35.0504 13.462 35.8484 12.958 36.8144 12.958C36.8984 12.958 36.9264 12.972 36.9264 13.056V14.54C36.9264 14.61 36.8984 14.638 36.8004 14.638C35.8064 14.61 34.9804 14.96 34.6584 15.38V19.888C34.6584 19.972 34.6164 20 34.5324 20H33.0764C32.9784 20 32.9504 19.958 32.9504 19.888V15.058C32.9504 14.456 32.9364 13.644 32.8804 13.182C32.8804 13.112 32.8944 13.098 32.9644 13.098ZM37.9133 19.888V14.708C37.9133 14.232 37.8853 13.476 37.8573 13.196C37.8573 13.126 37.8713 13.098 37.9552 13.098H39.2293C39.3273 13.098 39.3693 13.126 39.3973 13.196C39.4393 13.322 39.4673 13.504 39.4953 13.728C40.0973 13.224 40.7693 12.958 41.5253 12.958C42.5753 12.958 43.8633 13.49 43.8633 15.73V19.874C43.8633 19.972 43.8213 20 43.7513 20H42.2953C42.2113 20 42.1693 19.958 42.1693 19.874V15.884C42.1693 14.96 41.7773 14.428 40.9653 14.428C40.4053 14.428 39.9433 14.638 39.6073 15.002V19.888C39.6073 19.958 39.5653 20 39.4953 20H38.0253C37.9413 20 37.9133 19.958 37.9133 19.888ZM50.4054 20H48.9354C48.8514 20 48.8234 19.958 48.8234 19.874V14.582C48.8234 14.036 48.7954 13.462 48.7674 13.196C48.7534 13.126 48.7954 13.098 48.8794 13.098H50.1674C50.2374 13.098 50.2654 13.112 50.3074 13.182C50.3494 13.294 50.3774 13.518 50.3914 13.742C51.0494 13.182 51.6934 12.958 52.4354 12.958C53.2614 12.958 53.8634 13.266 54.2414 13.882C54.8434 13.364 55.5854 12.958 56.5374 12.958C57.6994 12.958 58.9034 13.574 58.9034 15.688V19.888C58.9034 19.972 58.8474 20 58.7774 20H57.3354C57.2374 20 57.2094 19.958 57.2094 19.874V15.842C57.2094 15.044 56.8874 14.414 56.0334 14.414C55.4874 14.414 55.0114 14.652 54.6614 14.988C54.6894 15.142 54.7034 15.52 54.7034 15.814V19.888C54.7034 19.958 54.6894 20 54.6054 20H53.1494C53.0654 20 53.0234 19.972 53.0234 19.874V15.8C53.0234 14.876 52.6034 14.428 51.8474 14.428C51.3434 14.428 50.9374 14.596 50.5174 14.946V19.888C50.5174 19.972 50.4894 20 50.4054 20ZM63.6313 12.958C65.7873 12.958 66.9633 14.596 66.9633 16.514C66.9633 18.684 65.5773 20.14 63.6033 20.14C61.2653 20.14 60.2293 18.334 60.2293 16.556C60.2293 14.568 61.5312 12.958 63.6313 12.958ZM63.5473 14.372C62.6093 14.372 61.9373 15.198 61.9373 16.528C61.9373 17.816 62.5673 18.712 63.6313 18.712C64.4993 18.712 65.2413 17.998 65.2413 16.556C65.2413 15.394 64.7373 14.372 63.5473 14.372ZM68.2925 13.098H69.6085C69.6925 13.098 69.7345 13.126 69.7625 13.21C69.8325 13.392 69.8885 13.742 69.9025 14.05C70.3785 13.462 71.1765 12.958 72.1425 12.958C72.2265 12.958 72.2545 12.972 72.2545 13.056V14.54C72.2545 14.61 72.2265 14.638 72.1285 14.638C71.1345 14.61 70.3085 14.96 69.9865 15.38V19.888C69.9865 19.972 69.9445 20 69.8605 20H68.4045C68.3065 20 68.2785 19.958 68.2785 19.888V15.058C68.2785 14.456 68.2645 13.644 68.2085 13.182C68.2085 13.112 68.2225 13.098 68.2925 13.098ZM77.3984 16.934H74.5564C74.5984 17.914 75.2424 18.698 76.6704 18.698C77.3004 18.698 77.8744 18.586 78.4064 18.362C78.4484 18.334 78.4904 18.348 78.4904 18.418V19.58C78.4904 19.664 78.4624 19.706 78.4064 19.734C77.8744 19.986 77.2584 20.14 76.3064 20.14C73.7584 20.14 72.8484 18.348 72.8484 16.626C72.8484 14.68 74.0244 12.958 76.1384 12.958C78.2104 12.958 79.0084 14.582 79.0084 15.912C79.0084 16.304 78.9944 16.626 78.9524 16.78C78.9384 16.836 78.9104 16.864 78.8404 16.878C78.6444 16.92 78.0844 16.934 77.3984 16.934ZM74.5564 15.73H76.6424C77.1744 15.73 77.3564 15.73 77.4124 15.716C77.4124 15.674 77.4124 15.618 77.4124 15.604C77.4124 15.198 77.1324 14.302 76.0684 14.302C75.1024 14.302 74.6684 15.044 74.5564 15.73Z" fill="white"/>
</g>
<defs>
<clipPath id="clip0_1_2">
<rect width="94.079" height="32" fill="white"/>
</clipPath>
</defs>
</svg>
