<svg xmlns="http://www.w3.org/2000/svg" width="124.4545" height="32.7383" viewBox="0 0 124.4545 32.7383"><defs><style>.cls-1{fill:#818181;}</style></defs><g id="Layer_2" data-name="Layer 2"><g id="Layer_1-2" data-name="Layer 1"><path class="cls-1" d="M10.9531,17.4357l-.7661,2.2988a.1385.1385,0,0,1-.1533.1114H8.6406c-.0835,0-.1113-.042-.0976-.14l2.87-8.1631a2.1419,2.1419,0,0,0,.125-.7529c0-.0557.0278-.0977.084-.0977h1.936c.07,0,.084.0147.0977.084l3.2182,8.9444c.0137.083,0,.125-.0835.125H15.23a.14.14,0,0,1-.1392-.084l-.8081-2.3262Zm2.8838-1.5185c-.2925-.919-.9473-2.8555-1.2261-3.8311h-.0136c-.2232.9336-.78,2.5635-1.1983,3.8311Z"/><path class="cls-1" d="M24.0742,16.1818c0,2.55-2.062,3.8037-4.1655,3.8037a3.7577,3.7577,0,0,1-.418-.0283V22.465c0,.0557-.0141.0977-.0976.1113-.4878.0557-1.4209.14-1.4908.14-.0835,0-.0976-.0147-.0976-.084V14.2873c0-.167-.0137-.627-.0415-.8223a.0648.0648,0,0,1,.0556-.0693,8.5022,8.5022,0,0,1,2.814-.5576A3.197,3.197,0,0,1,24.0742,16.1818Zm-4.5835-1.7695v4.11a2.3718,2.3718,0,0,0,.5571.042,2.162,2.162,0,0,0,2.2989-2.2715A1.7807,1.7807,0,0,0,20.48,14.2736,3.1655,3.1655,0,0,0,19.4907,14.4123Z"/><path class="cls-1" d="M31.665,16.1818c0,2.55-2.062,3.8037-4.1655,3.8037a3.7577,3.7577,0,0,1-.418-.0283V22.465c0,.0557-.0141.0977-.0976.1113-.4878.0557-1.4209.14-1.4907.14-.0835,0-.0977-.0147-.0977-.084V14.2873c0-.167-.0137-.627-.0415-.8223a.0649.0649,0,0,1,.0557-.0693,8.5009,8.5009,0,0,1,2.8139-.5576A3.197,3.197,0,0,1,31.665,16.1818Zm-4.5835-1.7695v4.11a2.3727,2.3727,0,0,0,.5572.042,2.162,2.162,0,0,0,2.2988-2.2715A1.7807,1.7807,0,0,0,28.07,14.2736,3.1655,3.1655,0,0,0,27.0815,14.4123Z"/><path class="cls-1" d="M32.9863,10.0382c0-.0693.042-.1113.1255-.1113h1.4351c.0835,0,.1255.042.1255.1113v7.9961c0,.4327.1533.5713.4873.5713a1.8129,1.8129,0,0,0,.2646-.0136c.042-.0137.0562.0136.0562.0839v1.045c0,.0966-.0142.1113-.084.1533a2.0366,2.0366,0,0,1-.794.1113c-.8916,0-1.6162-.3349-1.6162-1.7978Z"/><path class="cls-1" d="M36.5386,11.0832a.9211.9211,0,0,1,.9609-.961.8956.8956,0,0,1,.9478.961.9544.9544,0,1,1-1.9087,0Zm.0971,1.9922c0-.0694.042-.0977.1119-.0977h1.4765c.0835,0,.1113.0137.1113.0977v6.6591c0,.083-.0278.1114-.1254.1114H36.7754c-.0977,0-.14-.042-.14-.125Z"/><path class="cls-1" d="M41.3579,16.7951c.0415.9746.6826,1.7549,2.1035,1.7549a4.3951,4.3951,0,0,0,1.7276-.334c.0415-.0283.0835-.0137.0835.0556v1.1563a.1477.1477,0,0,1-.0835.1533,4.623,4.623,0,0,1-2.09.4043,3.218,3.218,0,0,1-3.4409-3.4971c0-1.9365,1.17-3.65,3.2739-3.65a2.77,2.77,0,0,1,2.856,2.9394,4.2426,4.2426,0,0,1-.0557.8643.12.12,0,0,1-.1118.0976,10.5693,10.5693,0,0,1-1.4346.0557Zm2.0757-1.1983a6.9914,6.9914,0,0,0,.7661-.0136v-.1114a1.2885,1.2885,0,0,0-1.3374-1.2959,1.5217,1.5217,0,0,0-1.5044,1.4209Z"/><path class="cls-1" d="M49.352,14.19c-.7382,0-.9892.3067-.9892.6,0,.3057.209.5147,1.1006.8633,1.5884.585,2.1318,1.2119,2.1318,2.2012,0,1.31-1.0312,2.1318-2.7446,2.1318a4.28,4.28,0,0,1-1.9644-.3906c-.07-.042-.0976-.0693-.0976-.1533V18.1183A.0724.0724,0,0,1,46.9,18.049a3.794,3.794,0,0,0,1.9922.5566c.7241,0,1.0727-.25,1.0727-.6123,0-.3486-.2651-.5713-1.1284-.92-1.5185-.5566-2.062-1.1836-2.062-2.1875,0-1.0586.8638-2.0478,2.605-2.0478a4.2976,4.2976,0,0,1,1.7554.2792.17.17,0,0,1,.0834.167V14.51c0,.07-.0415.1114-.125.084A3.9569,3.9569,0,0,0,49.352,14.19Z"/><path class="cls-1" d="M59.269,19.6232c0,.083-.0136.1387-.0835.167a3.1959,3.1959,0,0,1-1.184.1953c-1.1426,0-1.8252-.5576-1.8252-1.9365V14.3849h-.8775c-.07-.0136-.0976-.042-.0976-.126v-1.17c0-.083.0278-.1113.1113-.1113H56.19a14.6437,14.6437,0,0,1,.1392-1.7139.134.134,0,0,1,.1113-.125l1.4072-.1953c.07-.0137.0977,0,.0977.07-.042.459-.07,1.2813-.07,1.9639h1.3515c.0694,0,.0972.0283.0972.0977v1.2119c0,.0693-.0278.0976-.0972.0976H57.8623v3.3018c0,.6133.1948.9053.7939.9053a2.3463,2.3463,0,0,0,.5293-.0557c.042-.0137.0835,0,.0835.084Z"/><path class="cls-1" d="M66.68,16.3771a3.3585,3.3585,0,1,1-6.7012.042,3.3523,3.3523,0,0,1,3.3853-3.581A3.2688,3.2688,0,0,1,66.68,16.3771Zm-5.0015.0137c0,1.2822.627,2.1738,1.6856,2.1738.8637,0,1.602-.7109,1.602-2.1455,0-1.1562-.5014-2.1738-1.6855-2.1738C62.3467,14.2453,61.6782,15.0675,61.6782,16.3908Z"/><path class="cls-1" d="M72.8066,19.8459a.1468.1468,0,0,1-.14-.084c-.46-1.3369-1.811-5.294-2.2984-6.6865-.0141-.0557,0-.0977.0835-.0977H72.04a.1082.1082,0,0,1,.1255.084c1.003,3.26,1.3653,4.5967,1.5049,5.21h.0278c.1529-.6132.5708-1.9365,1.63-5.21.0137-.07.0557-.084.1114-.084h1.4072c.0415,0,.0971.0283.0693.1113-.5293,1.4629-1.88,5.3633-2.354,6.6592a.1411.1411,0,0,1-.1533.0977Z"/><path class="cls-1" d="M83.1279,11.0275c.0557,0,.0835.0137.0835.083v.9619a.538.538,0,0,1-.0415.1807c-.7524,1.7558-2.4658,5.4336-3.4551,7.5088a.1222.1222,0,0,1-.1254.084H77.9873c-.0557,0-.0835-.0284-.0557-.0977,1.9922-4.04,3.107-6.3662,3.5249-7.2305H77.1377c-.0557,0-.0835-.0273-.07-.0976l.209-1.31c.0141-.0693.0278-.083.0976-.083Z"/><path class="cls-1" d="M92.2505,15.6252a14.7341,14.7341,0,0,1,1.5049,1.8242c.5429.7246.9609.9892,1.602.9892a2.6,2.6,0,0,0,.3618-.0273c.07,0,.0977.0137.0977.0976v1.1973c0,.1113-.0137.14-.1113.1817a2.1939,2.1939,0,0,1-.7246.0976c-.961,0-1.6436-.2793-2.5772-1.6445a10.2313,10.2313,0,0,0-2.3125-2.6465,1.3317,1.3317,0,0,0-1.1982,1.3232c0,.7666.5571,1.4073,1.7,1.4073a2.7244,2.7244,0,0,0,1.1006-.1953c.0556-.0137.07.0136.07.0839v1.3233c0,.0976-.0279.1113-.0977.14a3.5883,3.5883,0,0,1-1.3652.209,2.8027,2.8027,0,0,1-3.1069-2.8008A2.7583,2.7583,0,0,1,89.144,14.58a2.6034,2.6034,0,0,1-.7524-1.7558c0-1.4072,1.1284-2.2842,2.7861-2.2842a3.5,3.5,0,0,1,1.5743.2783.1675.1675,0,0,1,.0834.167v1.2676c0,.084-.0556.1113-.1113.07a3.09,3.09,0,0,0-1.4765-.3213c-.8218,0-1.1983.3213-1.1983.8643,0,.4043.3623.8222.9473,1.2959h4.4165c.0972,0,.1113.0273.0972.0966l-.2085,1.254c-.0142.0976-.042.1123-.1255.1123Z"/><path class="cls-1" d="M101.9853,19.8459a.1468.1468,0,0,1-.14-.084c-.4595-1.3369-1.811-5.294-2.2983-6.6865-.0142-.0557,0-.0977.0835-.0977h1.5878a.1082.1082,0,0,1,.1255.084c1.003,3.26,1.3653,4.5967,1.5049,5.21h.0279c.1528-.6132.5708-1.9365,1.63-5.21.0137-.07.0557-.084.1114-.084h1.4072c.0415,0,.0972.0283.0693.1113-.5293,1.4629-1.88,5.3633-2.354,6.6592a.1411.1411,0,0,1-.1533.0977Z"/><path class="cls-1" d="M112.6689,13.34a2.403,2.403,0,0,1-.9472,1.8672,2.4585,2.4585,0,0,1,1.2676,2.1445c0,1.5742-1.3374,2.6338-3.2178,2.6338-1.9785,0-3.0791-1.1982-3.0791-2.6191a2.3827,2.3827,0,0,1,1.24-2.0762,2.43,2.43,0,0,1-.9472-1.95c0-1.2812,1.0034-2.4521,2.8837-2.4521A2.5267,2.5267,0,0,1,112.6689,13.34Zm-1.3652,3.9a1.3756,1.3756,0,0,0-.5293-1.1563.516.516,0,0,0-.32-.0976h-1.2124a.3494.3494,0,0,0-.2783.084,1.3013,1.3013,0,0,0-.5855,1.1426,1.3459,1.3459,0,0,0,1.4771,1.3515A1.2879,1.2879,0,0,0,111.3037,17.24Zm-2.7168-3.7754a1.3467,1.3467,0,0,0,.39.9756.3926.3926,0,0,0,.3208.1113h1.1285a.3378.3378,0,0,0,.3061-.14,1.2251,1.2251,0,0,0,.3487-.9053,1.248,1.248,0,0,0-2.4942-.042Z"/><path class="cls-1" d="M30.31,32.0171c.2332.0613.2854.113.251.2659-.0205.0911-.0544.1805-.0863.2836l-.5778.1633c-.0071-.0965.0135-.175-.0241-.2312a1.0242,1.0242,0,0,0-.2365-.1751l-.42.19.1454.1769a4.0282,4.0282,0,0,1-.9521.0159c.1667-.2147.4145-.1164.69-.0967l-.2574-.3345a1.0188,1.0188,0,0,1-.2492.07.9678.9678,0,0,1-.2528-.0678l-.0584.2575c-.1083-.0831-.1716-.229-.3818-.14v.3094h-2.171c-.07-.0908-.1117-.1993-.2068-.2486-.07-.0363-.21.0048-.3262.0118-.0319.16-.0319.16.23.1861-.1569.0706-.1569.07-.6037.0705-.2227,0-.4455.0058-.668.0007-.2155-.0049-.4307-.02-.6294-.03l-.129-.3993a.3011.3011,0,0,0-.0615.4309c-.5794,0-1.1321.0045-1.6845-.0028a1.9757,1.9757,0,0,1-.4659-.0629c-.235-.0617-.46-.1451-.7407-.2359l-.1374.0868a.4441.4441,0,0,1,.354.2149h-.5738l-3.4509,0c-1.1853,0-2.3713-.0192-3.5558.005a19.7873,19.7873,0,0,1-4.181-.3807,12.13,12.13,0,0,1-6.3469-3.2092A7.2352,7.2352,0,0,1,.7386,26.618,9.3691,9.3691,0,0,1,.001,23.1189c.0423-2.4024.0125-4.8055.0125-7.2083,0-1.7374.0056-3.4749-.0044-5.2123a2.2657,2.2657,0,0,1,.266-1.06,1.452,1.452,0,0,0,.1028-.8947L.0567,8.6908A.1923.1923,0,0,1,.04,8.6144,8.42,8.42,0,0,1,1.89,4.332a.6223.6223,0,0,1-.022.5377c-.0259.073-.0718.165.0667.1792a.2725.2725,0,0,0,.1945-.1272,3.647,3.647,0,0,0,.2448-.6429c.0243-.0966-.0459-.2068-.0816-.3427A11.1463,11.1463,0,0,1,6.623,1.0293a.9468.9468,0,0,0-.044.3155A.2554.2554,0,0,0,6.7424,1.5c.126.0278.1637-.0619.1685-.14.0057-.0931-.005-.1867-.0077-.28-.004-.1393.0935-.2009.314-.2058l.101.4334.0705.0058a3.1608,3.1608,0,0,0,.1905-.342A.673.673,0,0,1,8.1709.5656c.167-.0234.33-.0638.5-.0975.0243.1246.0539.2331.0646.3426.0133.1348.0608.267-.18.3511-.1832.0639-.056.2149-.06.3557.1163-.0933.2008-.1729.3009-.2388A.7244.7244,0,0,0,9.09.9024a4.1624,4.1624,0,0,1,.291-.536A8.3293,8.3293,0,0,1,11.6153.08c.0105.0156.0275.0308.0309.0476.018.09-.0922.235.1215.2438.1813.0074.1127-.1362.1455-.2166.0105-.0259.0251-.0509.047-.0945h4c.1638.15-.0216.3994.32.4921L16.2421.0656c.1123-.01.1952-.0234.2783-.0236.6434-.0018,1.2868-.0008,1.93-.0014.1742,0,.3578-.0188.42.2057A1.19,1.19,0,0,1,19.788.0412Q40.8345.04,61.8811.0416c1.3225,0,2.645.0126,3.9675.0188.2959.0014.5918,0,.9077,0a.8754.8754,0,0,0,.1593.1965c.0433.0323.1395.024.2259.0358.0935.0655.04.27.3547.2136C67.4217.4243,67.3257.3644,67.32.3c-.0063-.0724.0689-.1489.1246-.2535.4589.0238.95-.0207,1.4408.0161a.6522.6522,0,0,1,.21.0772c.2089-.0379.3741-.082.5435-.095.1956-.0151.3949-.0029.5926-.0023a.6764.6764,0,0,1,.4749.106.69.69,0,0,0,.3923.0793L71.1235.17,70.9122.0663,71.1863.052,71.2456.28,71.4725.155l.0243.17-.3211.1341.4427.1063c.0225.3-.3855.5038-.2454.8227.3493-.0178.2072-.4139.5842-.4005L71.8335.785l.7183-.049c.0254-.0132.046-.0819-.0317-.15a.1926.1926,0,0,0-.2579-.0133c-.1114.0846-.22.0582-.3671-.0082l.2066-.481a.3888.3888,0,0,1,.5076.1842L72.71,0l.0752.0558c.0216.007.0591.0113.0621.0213.0124.0426-.0077.1048.0243.1276.1594.1137.1383.2465.1148.39a2.13,2.13,0,0,0-.004.351c.2635.189.4573.0283.6808-.0561l-.449-.423c.217-.1752.4712-.094.7-.1195a4.3566,4.3566,0,0,0,.6-.1479,5.837,5.837,0,0,0,.2244.5552c.0257.05.1394.0736.2424.1236a1.4213,1.4213,0,0,1,.0811-.366A1.5871,1.5871,0,0,1,75.3194.235l.1819.1777c.1313.0009.16-.1362.0664-.345h.3674c-.07.1444-.1328.2632-.1847.3846A.5725.5725,0,0,0,75.697.658a.0983.0983,0,0,1-.1516.0873c-.157-.1333-.2288.0147-.3811.024l.1287.133-.1765.165L74.9227.9928l-.0454.2366-.0556.0053-.2181-.42-.32.1888a.7372.7372,0,0,1-.0849.5645c-.1336-.0871-.1336-.0871-.26.0022l.27-.0091c-.107.0619-.1532.1329-.08.233a1.9,1.9,0,0,1,.1128.1941l.0074-.0078-.3735-.0347a.295.295,0,0,0-.0011-.0647.3514.3514,0,0,0-.026-.07c-.0354,0-.0725-.0075-.0811.0011-.1818.1833-.1812.1837-.6086.3482l-.1408-.1516c-.1349.1562-.277.2775-.4972.088-.0292-.0252-.1358.0064-.2049.0009a1.2327,1.2327,0,0,1-.2484-.04c-.2577-.077-.2564-.08-.3927.1246-.2459-.045-.5526.11-.7263-.1069L70.494,2.21c-.0278-.2347.1686-.2987.3189-.388.1015.0148.1694.1157.3126.01a1.4588,1.4588,0,0,1,.4719-.1054c-.0139-.1091-.0381-.2025-.2524-.1928a4.5025,4.5025,0,0,1-.4548-.0255l.0719.25-.1567.07c-.0986-.2028-.1637-.2356-.3837-.1768-.1124.03-.2181.0746-.3432.1182l.07.3613c-.1862.0157-.3643.0416-.5429.0438-.5517.0066-1.1036.0052-1.6554.0042-.0665,0-.1927.0346-.131-.0861.0874.0053.1756.0113.266.0174.0436-.0991-.0012-.1486-.1282-.1524-.1412-.0043-.1677.0541-.1282.1439a.3285.3285,0,0,0-.3034-.0145,1.4226,1.4226,0,0,1-.9731.0316c-.04-.0129-.115-.0277-.1265-.0157-.1307.1363-.3178.0729-.478.0761-.4287.0086-.858.0029-1.3429.0029l.2727-.4674.1524.1882.0636-.1585-.623-.2249c-.05.1729-.079.3055-.1271.4341-.0839.2244-.09.2273-.4125.2278q-1.7445.0025-3.4889.0008H21.7582L21.666,1.62c-.2823.172-.0832.3746-.2083.5418H13.0888c.0279-.2094.053-.4094.0817-.6091.02-.1381.05-.2754.0655-.4137.0176-.1578-.0273-.213-.2561-.3437a.3267.3267,0,0,0-.2356.3677c.0154.3262.0046.6531.0046,1.0187-.09,0-.2217.0024-.3527,0a15.2648,15.2648,0,0,0-2.2117.1425,2.909,2.909,0,0,0-.84.1768.7355.7355,0,0,1-.1524.0177l-.3413-.5142c-.2224-.0153-.1574.2133-.3281.2263a1.4692,1.4692,0,0,1,.0657.2628c.0077.14-.0586.24-.2532.3022-.3283.1051-.6416.2367-.9663.3591L7.13,2.9255c.0108.4582-.4165.5625-.75.7433-.19-.24.2153-.4527-.0013-.691-.3421.0034-.224.233-.2951.3632a.4271.4271,0,0,0,.0334.4953l-.4152.2965-.1983-.127c-.0265.0351-.06.0587-.0581.08.0174.1928-.1092.3265-.2717.4665A6.17,6.17,0,0,0,2.8889,8.5465a7.2568,7.2568,0,0,0-.05.8393q-.0046,6.2682-.0021,12.5365c0,.5514-.0224,1.1035.004,1.6543q.2127,4.4444,5.5061,6.4008a3.5532,3.5532,0,0,0,.5462.21,16.21,16.21,0,0,0,3.1643.4c2.5235-.0106,5.0472-.005,7.5708-.0016.9733.0013,1.9464.0171,2.92.0205.27.0009.54-.0191.8449-.0308a4.7662,4.7662,0,0,0,.2.4391.3874.3874,0,0,0,.3581.2243c.2087-.234-.1014-.4158-.1353-.6388h3.39l-.19.2664.3626-.0625c.076.1645-.0521.4547.409.4094a.6036.6036,0,0,1,.1066-.1924c.1643-.1491.3455-.2875.5229-.4281.0092-.0072.0454.005.0946.0115-.0261.1531-.0916.3242.1713.4339l.1836-.0739.025-.3927a10.354,10.354,0,0,1,1.2831.0738.424.424,0,0,0,.175-.0281.693.693,0,0,1,.5864.0605.33.33,0,0,0,.3065.0094.964.964,0,0,1,.646-.0661l-.1287.114c.04.1.0739.1957.1176.2887.0425.09.0952.1782.1573.2929l-.1494.2285a1.0851,1.0851,0,0,0-.12-.1927.9655.9655,0,0,0-.1759-.1114c-.195.1207-.3857.23-.5621.352-.07.0485-.0645.114.0287.1654.2569.1416.2542.1821-.0434.3464a2.5252,2.5252,0,0,0-.1166-.2873,2.3761,2.3761,0,0,0-.1794-.2463l.1756-.078-.3756-.3034-.0834.37-.4153-.23c-.0889.2006-.15.366-.2377.5226-.0356.0633-.1305.1076-.225.1812.1163-.0148.208-.033.3-.0363.0888-.0032.179.0089.1782.1043-.0493.1516-.07.2935.2176.3513L30.029,32.1a.8247.8247,0,0,0,.1942.0726.2105.2105,0,0,0,.1446-.0527c.0149-.0154-.0354-.0671-.0562-.1024ZM71.9915,1.176l.22.2579.03-.192a.2964.2964,0,0,0,.3006.0089c-.0593-.0747-.1137-.1431-.1662-.21a.2517.2517,0,0,0,.3153-.0455c-.16-.12-.2328-.0285-.3087.0514l-.2647-.01ZM28.5233,31.7547a.573.573,0,0,0,.0072-.1868c-.0083-.0306-.0792-.0515-.1218-.0768-.033.0414-.0985.0858-.0924.1236.0137.0842.0673.1611.2167.1334l-.05.0973c.1873.07.23.2343.3755.3473.121-.0948.2026-.1714.0275-.26C28.7662,31.8721,28.6443,31.8138,28.5233,31.7547Zm-2.1817.4389c.038-.0248.1128-.0551.1079-.0732-.0239-.0886-.0865-.1607-.2524-.1934l.0521.2055c-.22-.0568-.0942-.2532-.2246-.3485-.1736.0954-.2856.2533-.2036.3116a1.2081,1.2081,0,0,0,.5562.2764Zm43.45-31.1552-.2068.1465.2839.23-.08-.3766c.1048-.0634.3108-.0429.3033-.1984-.0073-.1511-.2-.1728-.3226-.2359a.2532.2532,0,0,0-.33.082,3.08,3.08,0,0,0,.1987.3022C69.6621,1.0179,69.7414,1.0214,69.7913,1.0384ZM15.3179,1.05l.2081-.073c-.0547-.1944-.1-.3737-.1575-.5506a.8058.8058,0,0,0-.12-.2343.186.186,0,0,0-.2935.0138A.2515.2515,0,0,0,14.92.3414,1.9458,1.9458,0,0,0,14.9462.9c.0519.168.0345.37.2455.5043C15.406,1.3149,15.2345,1.1713,15.3179,1.05ZM29.0653,30.8557c.1549.2449.0069.5449.2766.7506-.2209.2161-.2209.2161-.0341.4006.03-.1979.2642-.1639.413-.2244-.0382-.0853-.1026-.1564-.094-.222C29.6724,31.2157,29.3444,31.0506,29.0653,30.8557ZM2.0035,11.4821c.2655-.4128.4063-.6884.1684-.927-.06.0632-.1516.1152-.1578.1724A1.2936,1.2936,0,0,0,2.0035,11.4821ZM68.4478.1284c-.2508.2056-.29.3244-.1387.4021a.2468.2468,0,0,0,.3127-.06C68.7522.3375,68.7085.2463,68.4478.1284ZM20.9715,32.1817l.1087.04.3774-.238c-.0455-.1786-.1877-.2352-.3714-.2321ZM68.7678,2.1128c.161-.2056-.0548-.2887-.1709-.3929l-.3322.1031.0041.0444.2557.03C68.5422,1.9983,68.52,2.1308,68.7678,2.1128ZM68.5357.7309a1.131,1.131,0,0,0,.3.1572.4376.4376,0,0,0,.2525-.0669A.1172.1172,0,0,0,69.1023.675.3454.3454,0,0,0,68.8846.62,2.0277,2.0277,0,0,0,68.5357.7309ZM1.8493,12.0106l-.089-.0137a2.7321,2.7321,0,0,0-.1932.3709c-.0136.0382.0717.0964.1117.1455.0568-.0366.1559-.0692.1627-.1105A2.4079,2.4079,0,0,0,1.8493,12.0106Zm19.49,18.9961c.1045.1521.0745.3514.3791.3346C21.6863,31.09,21.6727,31.0771,21.339,31.0067Zm-4.0707.9206c.0048-.2139-.08-.2926-.3777-.3475A.4964.4964,0,0,0,17.2683,31.9273ZM16.62,1.44a.407.407,0,0,0,.0175-.1746c-.0166-.0493-.0831-.1252-.1294-.126-.1374-.0023-.1283.0856-.1117.16C16.4151,1.3826,16.4417,1.4646,16.62,1.44Zm7.5648,29.8262c.0392.124.0952.2188.2644.1841a.146.146,0,0,0,.0677-.1521C24.4508,31.1827,24.3324,31.172,24.1849,31.2665ZM73.36,1.9506v-.28l-.5039.165Zm.5759-.9531c.2036-.1632.1309-.3041-.1506-.3733Zm-4.71.2788.0722-.0546a.9366.9366,0,0,0-.1723-.1858.2365.2365,0,0,0-.18.0315.1114.1114,0,0,0,.0278.1351A1.1153,1.1153,0,0,0,69.2252,1.2763ZM7.1081,2.0629c.2517-.0905.2633-.1249.1213-.3629A.2562.2562,0,0,0,7.1081,2.0629ZM17.3916,1.778l-.16-.1109c-.04.0365-.1118.073-.1119.11s.0692.0757.1082.1136Zm-2.9545,29.78.0727-.0656-.3851-.2416C14.2087,31.37,14.2041,31.5531,14.4371,31.5577Zm9.0161.111-.0219.0636a1.4813,1.4813,0,0,1,.2277.12c.1087.0844.173.077.2409-.0584Zm3.66-.3976.1179.0094c.0574-.1.0856-.1981-.1179-.3468ZM1.2692,9.0759l-.1084-.0071a1.2342,1.2342,0,0,0-.0827.232c-.0046.0288.057.0636.0884.0957.0342-.0211.0946-.04.098-.0636A1.85,1.85,0,0,0,1.2692,9.0759ZM69.9379,1.8354c-.1812-.0382-.3111-.0722-.4352.034C69.6516,2.021,69.775,1.9926,69.9379,1.8354ZM20.7365,1.0777c-.0822-.0536-.1317-.1108-.1777-.1092-.0506.0017-.0979.0575-.1466.09.0372.03.0723.0812.1121.0833A.764.764,0,0,0,20.7365,1.0777ZM26.185,31.045l-.3517-.0616.1684.2644ZM70.6034.2617,70.285.4054C70.5438.5443,70.5438.5443,70.6034.2617Zm-58.87.729-.0905.0039c-.0417.0965-.0725.1923.0905.3418ZM31.3788,31.033l.05.0426a1.0334,1.0334,0,0,0,.2141-.0786c.0293-.0187.0146-.0767.02-.1169-.0519.0007-.1229-.0144-.1518.0054A.7376.7376,0,0,0,31.3788,31.033ZM7.6026,1.6953l.0938.0075c.0972-.0729.1314-.1436-.07-.2458ZM24.7869,32.6342l.1113-.03-.1233-.2518C24.6286,32.507,24.6843,32.5748,24.7869,32.6342ZM69.04,1.6659l-.0429.0935c.1264-.0061.1987.1285.442.03Zm3.5645.05.0659-.0662-.2354-.1283C72.3724,1.7008,72.481,1.7144,72.6049,1.7162ZM25.5523,31.5792c-.0451-.2229-.0451-.2229-.33-.1512ZM70.6475,1.3718c-.18-.0461-.285-.0387-.3242.0983A.231.231,0,0,0,70.6475,1.3718Zm-1.67.069-.0622-.08-.1932.0671.0841.1123Zm4.2886-.2341.1586.1639c.0366-.0287.1058-.0587.1038-.0859C73.5217,1.19,73.4323,1.1787,73.266,1.2067ZM19.2769,30.7738c-.0678-.0386-.1139-.0846-.1505-.0806-.0446.0049-.0811.0517-.1212.08.039.0294.0746.0782.1177.0823C19.161,30.86,19.2073,30.8133,19.2769,30.7738Zm7.4025-.141c-.1709.0449-.2072.1119-.1227.2394C26.7,30.8133,26.7411,30.7479,26.6794,30.6328ZM9.9441,2.1768l.1981-.1231C9.9248,2.0029,9.9248,2.0029,9.9441,2.1768Zm19.55,28.7746c.1915.0524.1915.0524.2974-.0745ZM73.4881,1.67c.1447.13.2184.0683.2937,0Zm-4.0036-.2911c.0345.153.0345.153.228.1778ZM20.0331,31.7145c-.0582.1256-.0159.18.1833.1736Zm10.8417-.7036c.04-.041.0933-.0748.0852-.09-.0188-.0358-.0672-.0628-.1035-.0933-.0357.0273-.1025.057-.0993.0814C30.7614,30.94,30.8214,30.9676,30.8748,31.0109Zm-1.7918.67c.1448-.0479.1358-.117.0433-.1908a.1276.1276,0,0,0-.0965-.0051C28.9327,31.5649,28.9569,31.6314,29.083,31.6811ZM19.46,31.66l.076-.058-.25-.156-.056.0461Zm47.846-30.449.0261-.0639c-.068-.0649-.1405-.099-.2527.0138ZM28.5245,31.2218c-.06-.0234-.1029-.0541-.1326-.048s-.072.0508-.0671.0736a.1169.1169,0,0,0,.0908.0583C28.4491,31.3021,28.4758,31.2618,28.5245,31.2218ZM68.2662,1.7012l.0816-.0118c0-.0324.0149-.0713-.0037-.0955a.4268.4268,0,0,0-.1132-.0721l-.0445.025Zm2.3176-.5676.06-.0779-.2509-.07-.03.0477Zm2.1115-.73c-.0242.0691-.0451.0995-.0414.1281.0027.02.0384.0383.0594.0574.0278-.024.0751-.0469.0777-.0724S72.75.4647,72.6953.4036ZM21.1067,32.5252c.12-.006.21-.03.1815-.1881ZM6.8013,2.3752A.7466.7466,0,0,0,6.64,2.3157c-.0283-.0019-.06.0229-.09.0359.0263.023.0483.0595.08.0653A.6076.6076,0,0,0,6.8013,2.3752ZM6.3643,30.69c.0406-.0391.0768-.0587.0755-.0768a.0866.0866,0,0,0-.0576-.0578.1164.1164,0,0,0-.0755.0287A.4724.4724,0,0,0,6.3643,30.69Zm19.99,1.7981-.11.0735c.03.0229.057.0608.09.0642.031.0031.0686-.0305.1033-.0479Zm-8.0527-1.421.08-.0393-.1361-.1248-.0539.03ZM66.5327,1.7615l-.0556.06c.0524.0254.1047.0512.1587.0744l.0338-.0393C66.6264,1.8229,66.579,1.7926,66.5327,1.7615Zm-35.38,29.1456a.3732.3732,0,0,0-.0761.0872c-.0037.01.057.0478.0665.0438a.2283.2283,0,0,0,.0868-.0664C31.2344,30.9659,31.1912,30.9386,31.1527,30.9071Zm-11.5724.25.065-.0549-.15-.0959-.0472.0378Zm11.0411-.0174.1075-.0229-.0745-.146-.0756.0172Zm-4.2135.1733.1073-.01-.0392-.1656-.0858.01Zm-.8764.8125c.05-.0477.0861-.0705.0988-.0992.0051-.0114-.0413-.0512-.0634-.0508-.0361.0007-.0985.0211-.1012.0377C25.4613,32.04,25.4964,32.07,25.5315,32.1252Zm-5.6446-.8064-.0773.04.1261.1284.06-.0334ZM73.7363,1.3434c.0524.0239.0919.0517.1049.0458a.3523.3523,0,0,0,.0842-.0694c-.0258-.0147-.0579-.0451-.0762-.041A.4527.4527,0,0,0,73.7363,1.3434ZM3.2928,4.5237a.5483.5483,0,0,0-.0992-.0417c-.0082-.0017-.0418.0289-.0379.0391a.2379.2379,0,0,0,.0519.06ZM68.4369,1.1272c-.0172.0189-.0409.0366-.0368.0421a.4211.4211,0,0,0,.0625.0562c.0153-.0178.0475-.04.042-.0525C68.4963,1.1544,68.4614,1.1425,68.4369,1.1272Zm-.4364.0827c.0311-.029.0663-.0478.0686-.0687.0017-.0152-.0447-.0492-.0614-.0464a.1.1,0,0,0-.0707.05C67.9329,1.1606,67.9722,1.1827,68.0005,1.21Zm-44.9847.3549.0594.0327a.4721.4721,0,0,0,.05-.0666l-.0477-.0246A.54.54,0,0,0,23.0158,1.5648ZM65.3622.9017l.024.0612.1562-.0285L65.5153.87C65.4635.8772,65.413.89,65.3622.9017ZM27.3691,32.1647c.0488-.0391.0843-.0548.0882-.0741.0046-.0225-.0185-.0483-.03-.0726-.0271.0085-.0752.0147-.0774.0261A.3865.3865,0,0,0,27.3691,32.1647ZM71.0154.8391A1.3145,1.3145,0,0,0,70.8665.81c-.01-.0008-.0383.0366-.0348.0393a.4473.4473,0,0,0,.103.0621A.6077.6077,0,0,0,71.0154.8391ZM24.8369,32.1626l-.0819-.0844c-.0241.0143-.0638.0264-.0682.0436a.0679.0679,0,0,0,.0373.0626C24.7415,32.1924,24.78,32.1748,24.8369,32.1626Zm-2.1461-1.0039-.0532.028.0927.119.0775-.04ZM70.1612.6878c.0364-.0382.07-.0616.08-.09.0044-.0126-.04-.0349-.0618-.0527a.3249.3249,0,0,0-.0833.0652C70.0893.6216,70.127.6488,70.1612.6878ZM66.73,1.7008c.0808-.096.1153-.1252.109-.1317a.14.14,0,0,0-.0824-.04c-.0241-.0012-.0716.0233-.0717.0366A.5059.5059,0,0,0,66.73,1.7008ZM8.2643,2.7083c.0184-.04.042-.066.0353-.0857-.006-.0174-.0456-.0283-.07-.042-.0123.0223-.0357.0454-.0332.0668C8.198,2.6648,8.231,2.68,8.2643,2.7083ZM69.7882.2705A.4661.4661,0,0,0,69.85.1719a.1386.1386,0,0,0-.0758-.0328.1905.1905,0,0,0-.0757.0745C69.6945.22,69.7452.244,69.7882.2705Z"/><path class="cls-1" d="M124.2346,14.6481a.388.388,0,0,1,.1951.4447c-.0119.1384-.0173.2772-.0263.4293l-.3977-.0741-.0494.0634a1.5383,1.5383,0,0,0,.2338.19.3972.3972,0,0,1,.242.3828c-.0087.6064.027,1.2143-.02,1.8187-.0162.207.0169.4054.017.6077v2.085l-.311-.0109.13.1852.1613-.0574v1.6337l-.4319.0532c.14.0762.2121.1186.2883.1563.1241.0613.2063.1232.1242.2516-.0293.0459.0329.1211.0342.1831.0048.2417.0019.4835.0019.719l-.41.095.3714.1823a5.8521,5.8521,0,0,1-.2684,1.3653c-.0649.1864-.1344.3722-.1871.56a5.818,5.818,0,0,1-.9419,1.9348,10.343,10.343,0,0,1-2.6836,2.5831c-.3816.2478-.7979.4652-1.202.6986l-.1484-.1936c-.07.3779-.4343.4814-.75.6209-.016.0071-.0679-.0323-.1046-.0515.007-.128.205-.2222.1057-.4165-.1041.1629-.1686.2825-.099.4228a4.2633,4.2633,0,0,1-1.8044.67c-.9258.1943-1.87.3444-2.815.4789a9.8893,9.8893,0,0,1-1.3664.0629c-2.2369.0028-4.4738-.0054-6.7107-.0061-1.3954,0-2.7908.0059-4.1861.0083a2.9783,2.9783,0,0,1-.3319-.0137c-.017-.0019-.0223-.0641-.034-.0992a1.8445,1.8445,0,0,0,.3553-.1762c.1356-.1117.1055-.2469-.0268-.349a.3033.3033,0,0,0-.3329-.03.2651.2651,0,0,0-.1434.345,2.3408,2.3408,0,0,0,.1579.2186,1.2727,1.2727,0,0,1-.811.0719c-.07-.142.1553-.299-.055-.4243-.0823-.049-.138-.1423-.3071-.0689.1965.1631.1.3248-.0357.5219-.2164,0-.4591,0-.7018,0q-3.4692.0023-6.9386.0042-2.3927.0011-4.7852,0l-33.0716,0q-3.06,0-6.12,0a.83.83,0,0,1-.5526-.1084.36.36,0,0,0-.2662-.0244,1.0378,1.0378,0,0,1-.7991.1257c-.4283-.0266-.8523.0106-1.2786.0065-1.2489-.012-2.4981-.0035-3.7472-.0042a1.2693,1.2693,0,0,1-.1588-.0215l.0488-.18a.3433.3433,0,0,0-.466.0475l.3047-.5913.23.1424c-.0411-.2248-.22-.403.0075-.5714-.288-.0454-.4118.0208-.4892.2338-.1009.2775-.2008.5551-.3034.8322a.6173.6173,0,0,1-.0758.1016c-.2927-.0548-.5958-.2327-.9181-.0382.0145-.19.1115-.3024.2631-.2633a.85.85,0,0,0,.3784-.025c.2981-.0395.2979-.04.3283-.3271l-.2576-.0106-.0261-.1312-.01.0112c.1147-.0747.1953-.1549.1019-.2707a1.4609,1.4609,0,0,0-.2064.1189.8828.8828,0,0,0-.1215.1514l.0091-.0092c-.1364.0708-.2038.2092-.4116.2168-.0539.0019-.1136.09-.1506.1463-.0872.1323-.1624.269-.252.42H38.87l-.1334-.2257-.1707.2274-.1615-.1066c-.1876.0951-.3855.2147-.5993.0217a.7091.7091,0,0,1-.64.0637c-.1139-.1848.1333-.2906.1642-.4545-.187-.021-.2264.1105-.3364.15l.0087.0081.0643-.3234h-.3631c-.157-.1412-.06-.3046-.0483-.4552.01-.14.1534-.2993.0979-.41-.0909-.1812.0457-.2859.0969-.4339a.8564.8564,0,0,0,.2954.0894c.07-.0081.1236-.1.1827-.1565a.5266.5266,0,0,1,.5629-.0489l-.2721.0833.2009.339c-.1853.0443-.1921-.05-.2255-.11a.1958.1958,0,0,0-.2634-.0875c-.1208.04-.1229.1194-.0739.1879.13.1823-.0555.3059-.154.4567l-.0528-.2807c-.2.15-.3345.2831-.267.5006l.2735-.072.2422.14.1685-.3035c.1215.0951.22.1629.087.2921a.9524.9524,0,0,0-.1388.2867l.5577.0266a2.6549,2.6549,0,0,0,.2932-.316c.0437-.0674.0206-.1578.0467-.2342.0131-.0383.0693-.0682.1255-.12.0717.3912-.0966.6536-.54.8075l.1224.3159.3655-.0418v-.44l.2907.1039c.081-.0533.1714-.1129.2613-.1718-.0082.1358.0972.2047.2555.2217.0368.0039.0866-.0614.1322-.0963l-.3946-.1177c-.0311-.071.002-.0985.1017-.1041a.5573.5573,0,0,0,.5146-.2254c-.2327.001-.3317-.2615-.6265-.1043l.5365-1.0182.7367.1089.0387-.0719c.3575.0308.72-.0651,1.1082-.002l-.0354.4956c.1612-.0922.308-.1761.4544-.26-.0032.1433-.0032.1433.17.1l-.1789-.0925c.1135-.24.3358-.0528.51-.0738v.371c.3652-.11.3073-.3718.4454-.5284.3683-.01.7254-.0288,1.0822-.0257.2186.0019.4368.0371.655.0582.046.0045.1045.03.1348.0167a2.2451,2.2451,0,0,1,1.0049-.0521c.3542.01.71-.02,1.0651-.02q11.6717-.0054,23.3434-.0076,8.442-.0015,16.8841-.0018a.7814.7814,0,0,1,.67.1908.4706.4706,0,0,1,.4269-.194c1.9422.008,3.8845.0049,5.8209.0049.09.0646.1676.1637.2606.1731.08.0081.178-.0864.3358-.1725.7519,0,1.5927-.0123,2.4324.0054.39.0082.7775.0783,1.1673.1121a.8087.8087,0,0,0,.3142-.0245,2.0167,2.0167,0,0,1,.6828-.0956q1.6515.007,3.3029.0009a7.041,7.041,0,0,0,1.02,0,.6206.6206,0,0,1,.557.1948c.0969-.1938.2769-.1983.4817-.1971,1.1258.0062,2.2516.0022,3.3775.0039.1359,0,.2806-.0368.3551.12.0381.08.202.0572.2813-.0151a.3732.3732,0,0,1,.28-.1072c.6553.0061,1.3111.02,1.9659.0076a23.3806,23.3806,0,0,0,3.7278-.1713,10.05,10.05,0,0,0,5.2828-2.53,6.8123,6.8123,0,0,0,1.4282-1.9516,5.349,5.349,0,0,0,.537-2.55c-.0066-.28-.0107-.561.0023-.841a.9823.9823,0,0,1,.1069-.2776c-.1562,0-.1108-.1154-.1111-.2095-.0016-.4861-.0084-.9723.0021-1.4583.0058-.2683.0562-.5362.06-.8044a3.6635,3.6635,0,0,0-.0637-.5784.2492.2492,0,0,1,.2123-.3086c-.2085-.1167-.2141-.1168-.21-.293.0094-.4006.0295-.8011.0353-1.2018.0022-.1483-.03-.2968-.0347-.4454a.5206.5206,0,0,1,.1554-.4966c.1072-.0894.0693-.1215-.1415-.17v-.2846l.21.0268a.5838.5838,0,0,0,.0367-.5381l-.2123.4276a1.2267,1.2267,0,0,1-.0486-.2089c-.0021-.8414-.0061-1.6828.0038-2.5241a.6761.6761,0,0,1,.123-.3442c.04-.0613.1587-.0932.242-.1383l.07.0309a2.0416,2.0416,0,0,0-.0029-.2744.1824.1824,0,0,1,.0731-.199.2383.2383,0,0,0,.0886-.23c-.0606-.1485.0506-.2349.15-.3242a1.67,1.67,0,0,0,.4889-1.0772,2.0055,2.0055,0,0,1,.1563-.5675,1.1233,1.1233,0,0,1,.4005-.489l.05.3773.06.01c.1481-.2258.2984-.4507.4436-.6775.1126-.1757.2372-.1849.4224-.0124l-.2064.1278.0181.0368.2684-.0251a6.3806,6.3806,0,0,1-.0643,1.3032.1931.1931,0,0,0-.01.1083,1.7451,1.7451,0,0,1-.0033.7157c-.0352.3829-.0554.7669-.1069,1.1494-.0047.0343-.0006.0871.0276.1033.2049.1177.1519.2838.1517.4377a1.3648,1.3648,0,0,1-.1817.9243.709.709,0,0,0-.0994.3524c-.0053.0423.0624.09.0968.1349ZM42.0079,31.44l-.1157.1928.2554-.06-.142-.1307.0159-.2377-.2687.1852.0288.0483C41.8581,31.4377,41.9345,31.4377,42.0079,31.44Zm-3.07.9768-.1615-.1465c-.0566.1516.0279.1749.1724.1391v.2543c.19-.0805.251-.169.2289-.3263C39.08,32.37,39.01,32.3929,38.9382,32.4171Zm.6958-1.486c.2435.2691-.2519.2513-.2431.4341h.4552l.0494.2738c.1662-.1987.2719-.407.5211-.5077.0872.026.1913.0885.2619.0715a.234.234,0,0,0,.1926-.2515c-.2047-.1443-.2813.1421-.4685.05-.1757-.0863-.2.2291-.41.1054l.0922-.195Zm59.244,1.3283c-.1385-.116-.2631-.2178-.3837-.3222-.1574-.1362-.3718-.1354-.4276.0183a.3476.3476,0,0,0,.0781.2764.2316.2316,0,0,0,.2821.071.3816.3816,0,0,1,.3332-.001C98.7855,32.3128,98.8515,32.27,98.878,32.2594ZM123.3533,10.08c-.06.099-.1132.1461-.11.1912a1.72,1.72,0,0,1,.0532.3526c-.0186.1167-.1641.23-.1533.34.017.1724-.0657.2861-.2963.4157.4232-.0252.3754-.349.6262-.4013-.0223-.104-.0842-.2071-.0544-.2919A.7576.7576,0,0,0,123.3533,10.08Zm.4081,6.1472c.2938.0928.0884.2942.2113.3916.1054-.0013.2327-.0139.1862-.1154-.0682-.1489.0067-.2707.0559-.4038a.713.713,0,0,0,.0039-.2232C123.997,15.9916,123.7848,16.0582,123.7614,16.2276Zm.577,5.4061c-.24.1526-.5631.0807-.6186.34l.4994.147Zm-.38-11.9229-.0848.02c0,.0771-.0312.1648.0073.2286a1.1287,1.1287,0,0,0,.2564.263.2077.2077,0,0,0,.1586-.0021.1016.1016,0,0,0,.03-.1191C124.2124,9.9667,124.0829,9.84,123.9588,9.7108ZM95.8617,32.03a.2.2,0,0,0,.2236-.1765c.0087-.1032-.0411-.1825-.1789-.21a.2679.2679,0,0,0-.2775.1739C95.6186,31.9093,95.74,32.0208,95.8617,32.03Zm-20.6365-.5937a.7091.7091,0,0,0,.0253-.6088C75.0265,30.9789,75.0137,31.1319,75.2252,31.4363Zm26.5669-.4634a1.0853,1.0853,0,0,0-.2506-.12c-.1352-.0189-.3131.087-.2784.1653.0261.0588.1446.15.1813.14A1.7073,1.7073,0,0,0,101.7921,30.9729Zm-3.1143-.0849a1.1217,1.1217,0,0,0,.25.0768c.1162.0106.1775-.0533.17-.1408-.0076-.09-.0839-.1345-.1973-.1242C98.79,30.71,98.6806,30.7341,98.6778,30.888Zm23.5889-12.0124a.7534.7534,0,0,0,.2058-.6151A.6207.6207,0,0,0,122.2667,18.8756Zm.63-6.8821c.4275-.0864.4811-.1806.2845-.4454Zm.9009.0141-.0731.06c.1048.1317.1468.3042.4266.3552.0083-.06.04-.1195.0155-.1407C124.0523,12.1846,123.9221,12.098,123.7976,12.0076ZM100.6425,30.5923c-.0634.0689-.1313.1134-.1406.164-.0054.0293.0788.093.13.0984.1156.0119.1934-.0482.1786-.1347C100.8045,30.6819,100.7234,30.651,100.6425,30.5923Zm23.145-16.7775.0736.4613C124.0481,13.9784,124.048,13.9774,123.7875,13.8148Zm-.9269-.3446-.0622.06.5167.2643C123.2534,13.5934,123.0324,13.5568,122.8606,13.47Zm1.1125,4.8959.2872-.0588a1.7815,1.7815,0,0,0-.2033-.18c-.021-.0137-.0856.0107-.1437.02Zm-1.36.8071a.781.781,0,0,0,.6108-.13A.8691.8691,0,0,0,122.6131,19.1732ZM100.0718,31.7611c.1038.2341.1048.2328.3257.0875Zm22.5149-4.495c.2341-.06.2279-.0581.1636-.1708-.0234-.041-.01-.0941-.0129-.1417l-.058-.0035ZM94.5916,31.6843c-.0547.0716-.1236.1229-.11.1532.02.0454.0984.0762.1519.1131.0424-.0352.1271-.0791.1182-.1038C94.7333,31.7954,94.6652,31.7542,94.5916,31.6843ZM122.476,12.4356c.1532-.1226.0795-.2424.0251-.3787C122.2355,12.1878,122.52,12.3145,122.476,12.4356Zm.6725,9.1574.1009.0261.1769-.4373-.0636-.0153Zm-.915-2.4665c-.196.05-.2328.1367-.2415.41C122.2145,19.452,122.0948,19.2845,122.2335,19.1265Zm.0054,5.6711-.0792-.0289-.102.4214.1.0131Zm-24.1995,6.484c-.0657-.0335-.1126-.0759-.15-.0715-.0447.0052-.0811.05-.1211.0783l.138.0991ZM122.1985,21.3c-.1526.021-.2162.09-.1788.2069a.11.11,0,0,0,.0854.0359c.1512-.032.1559-.1186.1247-.2142C122.2273,21.3211,122.2151,21.3151,122.1985,21.3Zm-17.3956,9.7872c.0609-.0639.1167-.101.1293-.1451.0061-.0212-.07-.0557-.1082-.0842-.0418.0332-.1044.0623-.1182.1012C104.6962,30.9863,104.754,31.0268,104.8029,31.0875Zm17.6615-16.7961c.1126-.1646.1126-.1646,0-.3293Zm1.6815,10.1851-.2794.03C123.9978,24.6272,124.0837,24.6405,124.1459,24.4765ZM113.27,32.5455a1.14,1.14,0,0,0-.1736-.1064c-.0122-.0049-.094.0509-.0879.0645a.5888.5888,0,0,0,.1015.1248Zm-69.1762-.7941.0943.0664.2256-.2468-.0705-.0422Zm77.8633-18.1985.1056.0022v-.2727l-.0773-.0024ZM42.3094,31.79l-.0307.2325.0661.02.2075-.2125Zm49.9977-.8826-.2022-.121c-.0249.0269-.0761.0594-.0686.0792a.1559.1559,0,0,0,.0988.08C92.1718,30.9548,92.2231,30.9283,92.3071,30.9077Zm-50.5379.9431c-.1178.0537-.224.1131-.1527.2425C41.7955,32.0528,41.7886,31.9539,41.7692,31.8508Zm81.046-17.1938c.13-.2345.13-.2345,0-.3335Zm.78,9.2134-.0061.0849.2287.0126c-.0022-.0325.0006-.0923-.0073-.0932A2.0833,2.0833,0,0,0,123.5949,23.87ZM121.7784,14.05l.1234.0061.0359-.252-.0891-.0086ZM102.0379,32.5105l-.1046-.0877c-.0337.0281-.0832.0529-.0953.0857-.0075.02.0414.0526.065.08Zm.4087-1.7277-.2711.1327C102.3568,30.9815,102.4015,30.9226,102.4466,30.7828Zm-8.5661,1.6611a.6275.6275,0,0,0-.1517-.033c-.0228.0021-.0627.0452-.0567.0529a.1414.1414,0,0,0,.0873.0587C93.7891,32.5227,93.8193,32.4859,93.8805,32.4439Zm26.4528-4.9445-.0676-.01-.0422.1731.0628.0095Zm3.57-6.9888c-.0641-.039-.0955-.073-.13-.0752-.0325-.002-.0687.03-.1033.0467.0286.0245.0521.0616.0872.07C123.7874,20.5586,123.831,20.5325,123.9033,20.5106ZM46.9433,31.545c.1818-.0655.1818-.0655.1563-.2207Zm-2.5713.6406-.0572-.0527c-.1063.01-.1849.04-.1661.1988Zm79.2074-20.95-.1076.0212.091.1482.067-.0187ZM85.2224,31.119c-.0348-.0228-.0588-.0506-.0865-.0529-.0209-.0017-.0465.0292-.07.0456l.0873.0669ZM43.9189,32.4866c.1235.0961.205.1828.3127.0126ZM101.7056,31.43l.0958,0v-.1538a.5932.5932,0,0,0-.0917.006A1.1249,1.1249,0,0,0,101.7056,31.43ZM93.3,31.7722c-.0438.042-.0915.0676-.09.091a.1056.1056,0,0,0,.0761.0722c.031.0032.0961-.0325.0977-.0532C93.3861,31.8539,93.3422,31.8237,93.3,31.7722Zm-56.2292.0949-.0548.039.2187.1652C37.2811,31.8968,37.1393,31.9072,37.0707,31.8671Zm64.3105-.193c.0412-.048.0872-.0784.0812-.1009s-.0627-.0513-.0983-.0522a.0965.0965,0,0,0-.07.065C101.2936,31.6094,101.338,31.6331,101.3812,31.6741Zm19.1421-3.6882c-.1747.1459-.1747.1459-.1211.29Zm2.8428-12.7627c-.2169.0342-.2626.0807-.16.2032Zm.4963,8.3289.01.0577.1858-.0148-.01-.06Zm-.0827-.4016a.5425.5425,0,0,0-.1171-.07c-.0159-.0047-.05.0254-.0759.04a.3161.3161,0,0,0,.0848.0672C123.69,23.194,123.7282,23.1691,123.78,23.1505Zm-21.112,7.8321c-.022.0287-.0543.0518-.0494.0691.0055.02.0441.0339.0683.05l.0684-.0744Zm-5.9962.2512c-.0492-.0335-.081-.0682-.0986-.0645a.486.486,0,0,0-.1157.0554c.0246.0186.0494.0525.0738.0523A.5521.5521,0,0,0,96.6715,31.2338Zm26.2864-17.1147c-.05-.188-.05-.188-.2022-.1064Zm.8291-1.41-.0474.0429a.5781.5781,0,0,0,.0726.055l.0573-.0537ZM44.4548,31.94a.8257.8257,0,0,0-.16-.03c-.0244.0005-.0711.0364-.0669.0477a.3071.3071,0,0,0,.0686.0807Zm60.9793.1154-.09.0423c.0184.0168.0348.0453.0557.0474a.2441.2441,0,0,0,.0855-.0257Zm-12.916.3943a.5485.5485,0,0,0-.096-.0361c-.0079-.0014-.0382.0286-.034.0376.0093.02.0343.0349.0528.052Zm31.4342-8.1773a.454.454,0,0,0-.0945-.0071c-.0115.0015-.0174.0278-.0259.0428a.5346.5346,0,0,0,.0914.0157C123.9307,24.3244,123.9392,24.2969,123.9523,24.2728Z"/><path class="cls-1" d="M87.2582,2.07c.2363-.2546.6146-.438.6544-.7935.0089-.08.1533-.1518.2542-.2447l-.105-.3815.1533-.0559c-.1485-.2362-.1363-.2618.1532-.3533L88.2547.1187A.5253.5253,0,0,1,88.43.0459C88.9616.04,89.4934.0413,90.0251.0412q4.3616,0,8.7231-.0005h.4751l.2683.3979c.1857-.1012.0572-.2587.1754-.38.0852-.0051.1929-.0172.3-.0172q6.2362-.0008,12.4723,0a14.5163,14.5163,0,0,1,2.7418.3172c.3573.0683.7151.1352,1.0494.1984-.1079.1961-.2089.3725-.2988.5521-.0108.0218.0381.0606.0665.1019a.868.868,0,0,0,.4563-.5656c.2359-.0231.1759.12.2089.2a1.3537,1.3537,0,0,1,.0553.2488l.162-.0224-.089.3556c.2926-.15.2979-.4.5621-.5257a.5826.5826,0,0,1-.0982.3924.985.985,0,0,1-.2512.4c-.178.1241.0285.308-.1708.4032-.0178.3794-.0178.3794-.3668.7775-.6389-.1622-1.2648-.3334-1.9008-.4793a9.7842,9.7842,0,0,0-2.1881-.2143q-3.4338,0-6.8676,0H96.6844q-2.186,0-4.372-.0006c-.11,0-.2192-.0071-.3341-.011-.113-.29.2449-.6423-.2222-.88-.2.102-.27.2245-.2461.39.0221.1548.0208.3115.0317.4991-.469,0-.8986.0058-1.3275-.0055-.0743-.002-.1452-.0767-.2438-.1326a.576.576,0,0,1-.4828.1416c-.3691-.016-.7407.003-1.1109-.0046A3.7719,3.7719,0,0,1,87.92,2.11c-.1224.1112-.3451.0817-.56.0592-.0368-.0038-.0621-.07-.093-.1071Zm6.682-.1413.1012-.0119V1.585l.2726-.1024a1.1539,1.1539,0,0,1-.1715-.6572l.3792-.05a.6749.6749,0,0,0-.604-.1857c-.1641.0385-.2347.1447-.2283.3426a2.2142,2.2142,0,0,0,.018.4173C93.7525,1.5487,93.7246,1.7721,93.94,1.9291ZM90.5106.3935c-.036.13-.08.26-.1027.3912-.0054.0311.05.0881.0925.0983.0388.0093.1377-.0248.141-.046C90.6642.69,90.7592.5351,90.5106.3935Zm4.4531.1031L94.86.5022a.4738.4738,0,0,0,.0389.5154c.0144.0223.0946.02.1639.0334ZM95.3261,1.99l.0783-.0338a.3931.3931,0,0,0,.0094-.1291.48.48,0,0,0-.08-.1676.22.22,0,0,0-.1235.009.3515.3515,0,0,0-.0307.2023C95.1927,1.9166,95.2747,1.9508,95.3261,1.99Zm20.9316-.5431c-.234.1278-.2584.1715-.2018.3744C116.21,1.7172,116.3419,1.62,116.2577,1.447Zm-16.9406.2424c.0523-.0422.1266-.0818.1183-.0995-.0193-.0417-.0781-.073-.1209-.1084l-.1366.1082ZM89.1381.288a.3787.3787,0,0,0,.4493.1079A.4348.4348,0,0,0,89.1381.288Zm1.3728,1.2173c-.1662.0978-.1687.1943,0,.339ZM102.1344.1864c-.105-.089-.1958-.1029-.2868-.0246-.0146.0126-.0068.0576.0118.0718C101.9623.3118,102.0467.2817,102.1344.1864ZM89.7411,1.59c.087-.0744.0864-.1406-.0105-.1917a.1532.1532,0,0,0-.117.0253C89.5711,1.4977,89.5757,1.5674,89.7411,1.59ZM97.8636.6486A.1668.1668,0,0,0,97.6068.59c-.0191.0125.007.0645.0122.0983Zm-6.4511.3646C91.342.985,91.2953.952,91.2713.96a.39.39,0,0,0-.11.08c.0335.0209.073.0626.0992.0583A.5612.5612,0,0,0,91.4125,1.0132ZM88.7049,1.49l.0451-.0538-.1858-.0731-.0262.0412C88.592,1.4342,88.6487,1.4617,88.7049,1.49ZM91.4535.2312l.0231-.0575L91.29.13l-.0232.058Z"/><path class="cls-1" d="M122.3232,7.7553a.4864.4864,0,0,1-.1642.618c-.0833.06-.0882.1819-.16.3462a1.2644,1.2644,0,0,1,.6782-.0586c-.0169.0308-.02.0553-.0363.0633a.9624.9624,0,0,0-.5836.7425.6354.6354,0,0,1-.4364.5031.285.285,0,0,1,.0747-.378.4874.4874,0,0,0,.213-.4781l-.2873.0632a.2641.2641,0,0,1-.0353-.082,5.0228,5.0228,0,0,0-.5365-2.2443,10.9991,10.9991,0,0,0-.7321-1.1877c-.1534-.226-.2056-.4306.02-.6388.0609-.0561.1336-.105.2445-.191V4.6164l.22.0267.38-1.5707a.2476.2476,0,0,1,.265.2112l-.2321.1147.1527.1708.2845-.1674a8.0816,8.0816,0,0,1,1.0339,1.1464c-.1277.0111-.2786.0049-.1977.2251l.1865-.2339c.2076.1005.0742.28.1716.4117l.1386.0047c.01.0155.034.04.028.0452-.1175.1072.0748.2564-.122.3788-.0995.0618-.0361.2614-.0772.3932a.941.941,0,0,1-.1669.2411c-.0314.0418-.1.0814-.0986.1212a3.8815,3.8815,0,0,0,.05.5791c.0082.0467.1.1091.1666.1214.224.0412.2264.0338.3616.1935l-.5036.294c.087.286.0477.2979-.2982.3733-.0165.0036-.0258.03-.0343.0465l.0356.0177Zm-.7964-4.0034c-.0091.0237-.0092.0534-.0287.07a.4585.4585,0,0,0-.0845.6768c.0232.0268.0967.0286.1469.042-.0646.0778-.1747.1323-.1025.2573.0535.0925.0113.1955-.1511.2483a.2085.2085,0,0,0-.1178.1481,2.1343,2.1343,0,0,0-.0054.3394l.048.0007.1256-.2482c.2005.0968-.0086.2926.2559.3906a3.604,3.604,0,0,1,.0929-.5027,4.5534,4.5534,0,0,1,.2347-.5016l-.1935-.2006-.1952.0753a3.53,3.53,0,0,0-.0249-.7969l.1589.419c.1319-.0729.1017-.1807.1057-.2766C121.7977,3.7507,121.6672,3.7435,121.5268,3.7519Zm.5018,3.1633c.2491-.6649.2562-.7464.0394-.9292-.0892.2521-.17.4789-.2493.7061C121.7706,6.8305,121.8552,6.8945,122.0286,6.9152Zm-.8955-2.2329-.3086.5281A.3974.3974,0,0,0,121.1331,4.6823Zm1.1746,2.81.3209-.3553C122.2856,7.1491,122.249,7.1811,122.3077,7.4927Zm-.96-.6109.2712.0709c-.0012-.1551-.0012-.1551-.2021-.2155Zm.8485.1608.0814.0063.0615-.3245C122.0986,6.8163,122.1382,6.9278,122.1957,7.0426Zm-.0358.6242c-.1918.0816-.1918.0816-.1115.2239Zm.4912-2.748c-.18.0507-.18.0507-.1536.1837Zm-.7647-.8148c.109-.0967.1326-.1578-.0278-.2589ZM121.7426,8.33c.1906.0277.2049-.0637.2444-.1269.0049-.0077-.02-.0262-.0427-.0532Zm.043-.3135-.0784-.027a1.1314,1.1314,0,0,0-.0431.1143l.0552.0187C121.7436,8.0881,121.7643,8.0523,121.7856,8.0166Z"/><path class="cls-1" d="M119.5218,3.9074l-.1264.7393-.49-.3993A3.4768,3.4768,0,0,0,119.034,3.8c.0125-.0782.0984-.2256-.1557-.2006.0823-.1639.1743-.3255.2408-.4928.02-.0493-.0278-.1165-.0565-.1719a.1492.1492,0,0,0-.0987-.0052c-.0452.0482-.1228.1157-.1052.1546a.4142.4142,0,0,1-.0533.3785c-.0156.0318.052.0868.0814.1311l-.138.53c-.2163-.1379-.41-.2586-.5994-.3831a5.6106,5.6106,0,0,0-.5432-.3609,6.48,6.48,0,0,0-.68-.2534c.0369-.0972.0632-.1751.096-.2513.0687-.16.1479-.3134.0308-.4863-.0357-.0526-.0048-.1467.0324-.2094.19-.32.3892-.6365.5927-.9515a1.2049,1.2049,0,0,1,.2019-.1746l.0521.384.0524.0083.1537-.2527a8.17,8.17,0,0,1,1.2813.6308.9466.9466,0,0,1-.1534.1891c-.18.1342-.1841.13-.0351.2982.013.0147.01.0371.0217.0528a.3771.3771,0,0,0,.0624.0489c.2476-.1163.0257-.3674.2418-.4858.1728.0982.1969.1716.1228.3692s-.1456.394-.2186.591c-.06.1609-.1084.3248-.1836.4814-.0561.117.0063.1761.1282.2254l-.0054-.0065c-.1051.1724-.3438.3353-.0669.5352Zm-1.7893-2.102.089.022.098-.21-.1007-.025Z"/><path class="cls-1" d="M83.0822,2.0255a.7848.7848,0,0,0,.2-.8274l-.01.004a.8771.8771,0,0,1,.572.0391l-.0079-.0058-.1471.22c.0575.0472.1636.0981.1887.1662.02.0549-.0611.1294-.09.197-.0318.0736-.0554.1492-.0874.2371.5788-.0424.5788-.0424.7528-.153-.0045-.1539-.132-.1736-.3609-.1346.2045-.2294.5883-.389.2912-.6832.3029-.07.5092-.0224.4577.0921-.08.1785.1186.2214.176.3716.0951-.0706.2083-.1155.2133-.1664a.4476.4476,0,0,0-.0667-.33A.2732.2732,0,0,1,85.12.709l.2027.0126L85.247.548l.3044-.2661L84.96.2188,84.912.0928c.1792-.1082.2525.0314.3774.0706l.1988-.0965c.03.0152.0639.0237.0656.035.0175.1169.0175.2361.0466.3512.04.1563-.0061.2668-.2.3515-.0566.0248-.1064.1558-.0755.1822.2495.2136.1255.44.066.6645a1.44,1.44,0,0,0-.0623.16c-.0178.1361.0372.1749.2946.2179.2275-.2869-.0089-.5971.0683-.8934.0748-.2874.101-.5821.1583-.9337.083.0679.1731.1243.1636.1364-.1066.137-.06.2869-.0859.43a1.4311,1.4311,0,0,1-.1282.2942.7024.7024,0,0,1,.1325.572.0865.0865,0,0,0,0,.0542c.0245.0514.0543.1014.0981.1809l.3891-.0982c-.0258-.06-.0905-.1462-.0661-.1646.2472-.1869.1873-.4349.2428-.6573A3.8053,3.8053,0,0,0,86.7178.256c.01-.1649.1055-.2139.2953-.2136.2565.0005.5129,0,.7562,0l.1486.38c-.5094.2334-.4383.607-.4269.9872-.1334.037-.3926.0194-.2745.2369.0032.0057-.1336.0549-.2575.1049a.369.369,0,0,1,.2989.3191l.0095-.0091a.6077.6077,0,0,1-.5329.1008c-.1064-.0149-.192-.1148-.305-.1883l-.1225.19H84.666c0-.0447,0-.09-.0005-.1347.28-.0651.28-.0651.215-.2338-.1258.0593-.2621.0993-.204.243a.2122.2122,0,0,0-.2248.0213.7612.7612,0,0,1-.35.1156c-.34.0147-.6809.0059-1.0215.0026-.16-.0016-.16-.0055-.3469-.1612l.361,0c.1221.1488.1221.1488.28-.0189ZM86.845,1.38c-.0757-.014-.1716-.0655-.1962.04-.0185.0794.0445.126.1481.1059.1273-.0248.08-.0914.0439-.1483.2264.0058.2264.0058.187-.1527ZM86.9394.3636l.08-.0206L86.9482.2076l-.0624.0178Z"/><path class="cls-1" d="M119.4059,3.5936l.2585-.2647c-.1825-.2575.1287-.4465.2332-.6728a2.3853,2.3853,0,0,1,.2881-.3828l.2795.163-.4066.4742.0769.0455.4465-.3923c.1142.0444.1063.1142.068.1879a1.5812,1.5812,0,0,0-.1256.2319c-.0332.1066-.0128.2069.21.254l.2191-.4084c.107.1287-.0152.3943-.3115.7045a2.1524,2.1524,0,0,1-.2288,1.1623v-.45l-.08-.0151a4.0157,4.0157,0,0,0-.3376.6255c-.0329-.088-.08-.1433-.0639-.1834a2.0835,2.0835,0,0,1,.2559-.5214.8566.8566,0,0,0,.0571-.8586.6881.6881,0,0,0-.3352.5036,5.8977,5.8977,0,0,1-.0738.6373,1.9925,1.9925,0,0,1-.1872.3977c-.1865-.0688-.1088-.1637-.0831-.226.0749-.1815.1978-.35.1113-.5553-.0247-.0588.0424-.14.0806-.2479l-.2182.0638c.0241-.1133.0424-.2248-.14-.279Z"/><path class="cls-1" d="M122.75,9.7589c-.0651-.2849.1537-.5017.3616-.721l-.0633-.0365-.5159.1766a2.78,2.78,0,0,0,.5634-1.585c.1041.0812.0676.0926.1465.3718.0334.1187-.2264.2415.0632.3551.0307-.1279.0656-.2414.0834-.3565a2.1721,2.1721,0,0,1,.049-.4143.9019.9019,0,0,1,.2736-.3279c-.0206.1242-.0394.2486-.0622.3725-.0178.0969-.1916.1783-.0285.2992.0314.0233-.055.1526-.109.2234a.36.36,0,0,0,.0566.5826c.1356.1063.0462.1983-.2037.2353l.036.3348a1.2683,1.2683,0,0,0-.3457.05.57.57,0,0,0-.18.2031c-.0521.0732-.0915.1514-.1366.2275Z"/><path class="cls-1" d="M122.7381,9.75a2.6617,2.6617,0,0,1-.2495.49.6657.6657,0,0,0-.1412.4662.6816.6816,0,0,1-.095.32c-.1159.2246-.2468.445-.3782.6649a2.7964,2.7964,0,0,1-.1927.2449c-.0989-.2393-.1686-.41.0061-.5969a1.124,1.124,0,0,0,.1478-.3643l-.2016.0793c-.0968-.0543-.0488-.6406.07-.8036.1881.0386.143.1375.1172.2382-.0246.0963-.0313.1953-.048.3075a.3581.3581,0,0,0,.3186-.3419.6694.6694,0,0,1,.2037-.3678,3.3215,3.3215,0,0,0,.2534-.3565c.0677.01.1343.02.2007.0291Z"/><path class="cls-1" d="M34.3815,30.9746c-.09.0326-.1.16-.2612.1182-.0292-.0074-.1088.0584-.14.1009-.1121.1537-.23.3073-.1506.4979.0137.0327-.0289.0789-.0682.1146-.0936-.2292-.2684-.4623.0849-.6311.0094-.1929-.1485-.1862-.3108-.2223-.1359-.03-.2405-.1353-.4129-.0417l.23-.3171h.2942l.0594.2337a.7552.7552,0,0,0,.5469-.2639l.1194.4172Z"/><path class="cls-1" d="M83.8439,1.2412c.0414-.11.02-.1909-.1327-.2516-.2685-.1065-.264-.1129-.19-.383a1.8111,1.8111,0,0,0,.4548-.1388c.0783-.05.0663-.1808.108-.32l-.3314.1187.0822-.2322.47.0792c-.1583.1545-.0287.3364-.2378.4311.1441.1648-.14.2968-.0591.461.0569.1164-.0078.1985-.1716.23Z"/><path class="cls-1" d="M31.72,32.4439l-.1509.1288a.8894.8894,0,0,1-.0969-.0981c-.0722-.1059-.1732-.2122-.0082-.343l.312.1152.1477-.4649.2108-.0429-.1862.5223c.053.0549.2748.0995.1288.2312C31.9487,32.6079,31.8414,32.4984,31.72,32.4439Z"/><path class="cls-1" d="M74.2418,1.988c.2676-.0219.5353-.0586.8028-.0575.0933,0,.186.0939.2743.1422l.324-.1851.1241.2c-.3592.2226-.6435.0173-.9553-.0856a.4126.4126,0,0,1-.4693.1594c-.0314-.0621-.0618-.1221-.0927-.1817Z"/><path class="cls-1" d="M124.23,8.2884c.068.1038.15.1847.13.2047-.16.1537-.0538.3136-.0466.4711.0014.0313-.0239.0632-.0541.1366l-.2658-.3239c-.1255.0372.0417.2992-.2684.2118C123.7286,8.7019,123.9985,8.5419,124.23,8.2884Z"/><path class="cls-1" d="M33.5588,31.7683c-.1831.197-.3235.3739-.0776.5708l-.1847.1848c-.0191-.0126-.048-.0232-.0475-.0328.0039-.0676.0139-.135.0252-.23-.1639.0787-.1072.2834-.347.2417.0589-.1434.0709-.3182.1906-.4224C33.233,31.9806,33.241,31.7763,33.5588,31.7683Z"/><path class="cls-1" d="M76.2186,1.844c.0637-.0827.09-.1679.15-.1855a.4576.4576,0,0,0,.3546-.322c.0154-.0521.1049-.0917.1742-.1482.0142.0845.0011.1556.0389.2043.1241.16.1148.1876-.0891.2443C76.6605,1.6889,76.4814,1.7565,76.2186,1.844Z"/><path class="cls-1" d="M32.7118,31.1784c-.174.0763-.3739.1125-.2465.2963a2.0248,2.0248,0,0,1-.1957.1029l-.0857-.5012C32.35,31.14,32.5683,30.9359,32.7118,31.1784Z"/><path class="cls-1" d="M39.0832,30.6877c-.4751.0373-.3313.32-.4133.5188-.1928-.2071.0556-.3943.01-.6123l.3463.0438Z"/><path class="cls-1" d="M119.4005,3.5871c.182.0542.1637.1657.14.279a.0638.0638,0,0,1-.0183.0413l-.1882.2149C119.0567,3.9224,119.2954,3.76,119.4005,3.5871Z"/><path class="cls-1" d="M123.0408,6.38c-.2218-.1887-.0841-.378-.0057-.59C123.1512,5.9862,123.1553,6.0661,123.0408,6.38Z"/><path class="cls-1" d="M83.1343,1.3852h-.3136l-.0616-.1342-.2.0755-.03-.1968c.3175-.0607.4515.1188.65.2082Z"/><path class="cls-1" d="M76.495.69c.2384-.1123.2384-.1123.2417-.3858.059.0262.1415.0444.1437.0671a.7488.7488,0,0,1-.0123.3158C76.8308.7945,76.72.7945,76.495.69Z"/><path class="cls-1" d="M38.2361,30.9522l-.2682-.0283c.0472-.0761.083-.1406.1263-.202.0859-.122.22-.16.452-.1118C38.3324,30.686,38.2464,30.8035,38.2361,30.9522Z"/><path class="cls-1" d="M30.3116,32.0173a.4085.4085,0,0,1-.0282-.4328l.285.0309a.6247.6247,0,0,1-.2586.4017Z"/><path class="cls-1" d="M76.2208.5753c-.0341-.1551.1761-.331-.1049-.4546.1324-.09.2469-.0488.2565.0181A1.67,1.67,0,0,1,76.344.57c0,.0037-.0829.0017-.1271.0024Z"/><path class="cls-1" d="M27.775,30.9294l-.24-.3029.377-.0535Z"/><path class="cls-1" d="M37.9891,31.195c.04.1436.2122.29-.0344.448C37.9158,31.48,37.77,31.34,37.9891,31.195Z"/><path class="cls-1" d="M36.9932,32.3791l-.2709.2469-.0257-.3152c.1653-.07.2061.0579.3051.0762Z"/><path class="cls-1" d="M34.3276,32.3391l-.083-.5014.0312-.0024.1377.4959Z"/><path class="cls-1" d="M76.283,2.04c-.2949.0959-.3572-.0619-.4851-.1213C75.9947,1.8515,76.0933,1.9617,76.283,2.04Z"/><path class="cls-1" d="M75.6686,1.3947l-.139-.1395.2411-.149C75.9313,1.2485,75.7123,1.2793,75.6686,1.3947Z"/><path class="cls-1" d="M75.9226,1.71l.1324-.4028.1484.2526Z"/><path class="cls-1" d="M122.3262,7.7607c.358-.0343.3961.0112.2432.3324-.0886-.1221-.04-.2887-.2449-.3364Z"/><path class="cls-1" d="M83.013.9585c-.1371-.0256-.316.0808-.4159-.0743a.843.843,0,0,1,.406.0819Z"/><path class="cls-1" d="M123.3277,5.4092l.1887.3532C123.2909,5.647,123.2909,5.647,123.3277,5.4092Z"/><path class="cls-1" d="M32.78,30.5881l.1712.0134a.7.7,0,0,0-.1019.1186.4624.4624,0,0,0-.0284.1305l-.09-.01Z"/><path class="cls-1" d="M31.949,30.8287l.192-.2588C32.2516,30.752,32.2516,30.752,31.949,30.8287Z"/><path class="cls-1" d="M36.1082,31.6857l-.1767.265C35.8114,31.7609,35.8209,31.7426,36.1082,31.6857Z"/><path class="cls-1" d="M83.282,1.1981q-.1341-.12-.2686-.24l-.01.0079c.114,0,.2285,0,.4162,0-.065.1055-.1047.17-.1459.235Z"/><path class="cls-1" d="M76.2277,1.1748,76.4961.83C76.4657.989,76.5516,1.1393,76.2277,1.1748Z"/><path class="cls-1" d="M74.6507,1.595l-.14.2468c-.0557-.0775-.1157-.1235-.1175-.1706C74.3882,1.532,74.5075,1.5688,74.6507,1.595Z"/><path class="cls-1" d="M123.6569,8.4666l.0865-.3193C123.8288,8.2826,123.8288,8.2826,123.6569,8.4666Z"/><path class="cls-1" d="M35.7388,30.8589l.2256-.2345c.07.1582-.0808.1961-.1671.2688Z"/><path class="cls-1" d="M35.6052,30.7654l-.1227.2193C35.38,30.8638,35.45,30.8,35.6052,30.7654Z"/><path class="cls-1" d="M76.2169.5721c.029.1848.0277.1859-.3556.265.1507-.1075.2567-.183.3611-.26Z"/><path class="cls-1" d="M34.3733,30.981l.2943.0324-.0884.1895c-.07-.0815-.1336-.1552-.1973-.2285Z"/><path class="cls-1" d="M36.37,31.239l-.34-.03.0382-.1655Z"/><path class="cls-1" d="M35.8,32.481l-.1659.18C35.6174,32.5671,35.5883,32.4714,35.8,32.481Z"/><path class="cls-1" d="M75.1732,1.57c-.2135-.0874-.1392-.1625-.0764-.2392Z"/><path class="cls-1" d="M123.0736,5.59l-.0883-.1361.0913-.0219a1.1754,1.1754,0,0,1,.0734.1323Z"/><path class="cls-1" d="M124.2431,14.6541c.0217-.1454.0217-.1454.2114-.0992-.0884.0373-.1544.0651-.22.093Z"/><path class="cls-1" d="M34.97,30.6685l-.2526.08c.066-.0738.0859-.1121.1231-.1323a.3276.3276,0,0,1,.1167-.0071Z"/><path class="cls-1" d="M73.06.1056a.3029.3029,0,0,1,.0923-.0514.2524.2524,0,0,1,.1544.0313l-.2188.0588Z"/><path class="cls-1" d="M40.2655,31.918c-.0758-.0081-.1487.2216-.2271.0016l-.0091.0092c.0755-.0455.1511-.1283.226,0Z"/><path class="cls-1" d="M35.3611,31.4163a.5411.5411,0,0,1,.037.0856c.0013.0051-.0328.0156-.0506.0236l-.0361-.0981Z"/><path class="cls-1" d="M82.4709,1.8616a.265.265,0,0,1,.0669.0481c.0047.0066-.03.0293-.0468.0446a.57.57,0,0,1-.0639-.0558Z"/><path class="cls-1" d="M36.3044,32.5124v.1665l-.0569.0035-.0248-.1669Z"/><path class="cls-1" d="M15.3179,1.05c-.0834.1215.0881.2651-.1262.354-.211-.1343-.1936-.3363-.2455-.5043A1.9458,1.9458,0,0,1,14.92.3414a.2515.2515,0,0,1,.0352-.1357.186.186,0,0,1,.2935-.0138.8058.8058,0,0,1,.12.2343c.0577.1769.1028.3562.1575.5506Z"/><path class="cls-1" d="M29.0653,30.8557c.2791.1949.6071.36.5615.7048-.0086.0656.0558.1367.094.222-.1488.0605-.3828.0265-.413.2244-.1868-.1845-.1868-.1845.0341-.4006C29.0722,31.4006,29.22,31.1006,29.0653,30.8557Z"/><path class="cls-1" d="M2.0035,11.4821a1.2936,1.2936,0,0,1,.0106-.7546c.0062-.0572.0973-.1092.1578-.1724C2.41,10.7937,2.269,11.0693,2.0035,11.4821Z"/><path class="cls-1" d="M69.7954,1.0367c-.054-.0153-.1333-.0188-.1573-.0481a3.08,3.08,0,0,1-.1987-.3022.2532.2532,0,0,1,.33-.082c.1229.0631.3153.0848.3226.2359.0075.1555-.1985.135-.3033.1984Z"/><path class="cls-1" d="M70.8054,1.8277l.1567-.07-.0719-.25a4.5025,4.5025,0,0,0,.4548.0255c.2143-.01.2385.0837.2524.1928a1.4588,1.4588,0,0,0-.4719.1054c-.1432.1058-.2111.0049-.3126-.01Z"/><path class="cls-1" d="M68.4478.1284c.2607.1179.3044.2091.174.3425a.2468.2468,0,0,1-.3127.06C68.1578.4528,68.197.334,68.4478.1284Z"/><path class="cls-1" d="M26.3416,32.1936l.0356.1784a1.2081,1.2081,0,0,1-.5562-.2764c-.082-.0583.03-.2162.2036-.3116.13.0953.0042.2917.2246.3485Z"/><path class="cls-1" d="M20.9715,32.1817l.1147-.43c.1837-.0031.3259.0535.3714.2321l-.3774.238Z"/><path class="cls-1" d="M68.7678,2.1128c-.248.018-.2256-.1145-.2433-.2158l-.2557-.03-.0041-.0444.3322-.1031C68.713,1.8241,68.9288,1.9072,68.7678,2.1128Z"/><path class="cls-1" d="M68.5357.7309A2.0277,2.0277,0,0,1,68.8846.62a.3454.3454,0,0,1,.2177.0554.1172.1172,0,0,1-.0137.1462.4376.4376,0,0,1-.2525.0669A1.131,1.131,0,0,1,68.5357.7309Z"/><path class="cls-1" d="M1.8493,12.0106a2.4079,2.4079,0,0,1-.0078.3922c-.0068.0413-.1059.0739-.1627.1105-.04-.0491-.1253-.1073-.1117-.1455a2.7321,2.7321,0,0,1,.1932-.3709Z"/><path class="cls-1" d="M28.5234,31.7546c.1209.0592.2428.1175.3626.1781.1751.0886.0935.1652-.0275.26-.1452-.113-.1882-.2777-.3755-.3473l.05-.0973Z"/><path class="cls-1" d="M21.339,31.0067c.3337.07.3473.0832.3791.3346C21.4135,31.3581,21.4435,31.1588,21.339,31.0067Z"/><path class="cls-1" d="M17.2683,31.9273a.4964.4964,0,0,1-.3777-.3475C17.1886,31.6347,17.2731,31.7134,17.2683,31.9273Z"/><path class="cls-1" d="M16.62,1.44c-.1784.0243-.205-.0577-.2236-.141-.0166-.074-.0257-.1619.1117-.16.0463.0008.1128.0767.1294.126A.407.407,0,0,1,16.62,1.44Z"/><path class="cls-1" d="M24.1849,31.2665c.1475-.0945.2659-.0838.3321.032a.146.146,0,0,1-.0677.1521C24.28,31.4853,24.2241,31.3905,24.1849,31.2665Z"/><path class="cls-1" d="M73.36,1.9506l-.5039-.1146.5039-.165Z"/><path class="cls-1" d="M73.9354.9975,73.7848.6242C74.0663.6934,74.139.8343,73.9354.9975Z"/><path class="cls-1" d="M69.2252,1.2763a1.1153,1.1153,0,0,1-.2518-.0738.1114.1114,0,0,1-.0278-.1351.2365.2365,0,0,1,.18-.0315.9366.9366,0,0,1,.1723.1858Z"/><path class="cls-1" d="M7.1081,2.0629A.2562.2562,0,0,1,7.2294,1.7C7.3714,1.938,7.36,1.9724,7.1081,2.0629Z"/><path class="cls-1" d="M17.3916,1.778l-.164.1124c-.039-.0379-.1084-.0758-.1082-.1136s.0717-.0732.1119-.11Z"/><path class="cls-1" d="M14.4371,31.5577c-.233-.0046-.2284-.1877-.3124-.3072l.3851.2416Z"/><path class="cls-1" d="M23.4532,31.6687l.4467.1248c-.0679.1354-.1322.1428-.2409.0584a1.4813,1.4813,0,0,0-.2277-.12Z"/><path class="cls-1" d="M27.1135,31.2711v-.3374c.2035.1487.1753.2472.1179.3468Z"/><path class="cls-1" d="M1.2692,9.0759a1.85,1.85,0,0,1-.0047.257c-.0034.0235-.0638.0425-.098.0636-.0314-.0321-.093-.0669-.0884-.0957a1.2342,1.2342,0,0,1,.0827-.232Z"/><path class="cls-1" d="M69.9379,1.8354c-.1629.1572-.2863.1856-.4352.034C69.6268,1.7632,69.7567,1.7972,69.9379,1.8354Z"/><path class="cls-1" d="M72.3743,1.0394l.168.2114a.2966.2966,0,0,1-.3007-.0089l.0126.0118-.1362-.217.2647.01Z"/><path class="cls-1" d="M20.7365,1.0777a.764.764,0,0,1-.2122.0638c-.04-.0021-.0749-.0537-.1121-.0833.0487-.0322.096-.088.1466-.09C20.6048.9669,20.6543,1.0241,20.7365,1.0777Z"/><path class="cls-1" d="M28.533,31.7481c-.1494.0277-.203-.0492-.2167-.1334-.0061-.0378.0594-.0822.0924-.1236.0426.0253.1135.0462.1218.0768a.5723.5723,0,0,1-.0072.1867Z"/><path class="cls-1" d="M69.7883,1.0387l.08.3766-.2839-.23c.087-.0616.1469-.1041.2088-.1474Z"/><path class="cls-1" d="M30.029,32.1l.2212.3539c-.2872-.0578-.2669-.2-.2176-.3513Z"/><path class="cls-1" d="M26.185,31.045l-.1833.2028-.1684-.2644Z"/><path class="cls-1" d="M70.6034.2617c-.06.2826-.06.2826-.3184.1437Z"/><path class="cls-1" d="M11.7337.9907v.3457c-.163-.1495-.1322-.2453-.0905-.3418Z"/><path class="cls-1" d="M31.3788,31.033a.7376.7376,0,0,1,.1322-.1475c.0289-.02.1-.0047.1518-.0054-.0051.04.01.0982-.02.1169a1.0334,1.0334,0,0,1-.2141.0786Z"/><path class="cls-1" d="M7.6026,1.6953l.0237-.2383c.2015.1022.1673.1729.07.2458Z"/><path class="cls-1" d="M26.3416,32.1936l-.0924-.0611-.0521-.2055c.1659.0327.2285.1048.2524.1934C26.4544,32.1385,26.38,32.1688,26.3416,32.1936Z"/><path class="cls-1" d="M24.7869,32.6342c-.1026-.0594-.1583-.1272-.012-.2816l.1233.2518Z"/><path class="cls-1" d="M67.8292,2.1012c-.04-.09-.013-.1482.1282-.1439.127.0038.1718.0533.1282.1524-.09-.0061-.1786-.0121-.266-.0174Z"/><path class="cls-1" d="M69.04,1.6659l.3991.1232c-.2433.0988-.3156-.0358-.442-.03Z"/><path class="cls-1" d="M72.6049,1.7162c-.1239-.0018-.2325-.0154-.1695-.1945l.2354.1283Z"/><path class="cls-1" d="M25.5523,31.5792l-.33-.1512C25.5072,31.3563,25.5072,31.3563,25.5523,31.5792Z"/><path class="cls-1" d="M70.6475,1.3718a.231.231,0,0,1-.3242.0983C70.3625,1.3331,70.4675,1.3257,70.6475,1.3718Z"/><path class="cls-1" d="M68.9774,1.4408l-.1713.1-.0841-.1123.1932-.0671Z"/><path class="cls-1" d="M73.266,1.2067c.1663-.028.2557-.0172.2624.078.002.0272-.0672.0572-.1038.0859Z"/><path class="cls-1" d="M19.2769,30.7738c-.07.04-.1159.0857-.154.0821-.0431-.0041-.0787-.0529-.1177-.0823.04-.0287.0766-.0755.1212-.08C19.163,30.6892,19.2091,30.7352,19.2769,30.7738Z"/><path class="cls-1" d="M26.6794,30.6328c.0617.1151.02.1805-.1227.2394C26.4722,30.7447,26.5085,30.6777,26.6794,30.6328Z"/><path class="cls-1" d="M9.9441,2.1768c-.0193-.1739-.0193-.1739.1981-.1231Z"/><path class="cls-1" d="M29.4942,30.9514l.2974-.0745C29.6857,31.0038,29.6857,31.0038,29.4942,30.9514Z"/><path class="cls-1" d="M73.4881,1.67h.2937C73.7065,1.738,73.6328,1.8,73.4881,1.67Z"/><path class="cls-1" d="M72.3827,1.0469c.0759-.08.1482-.1716.3087-.0514a.2516.2516,0,0,1-.3162.0447Z"/><path class="cls-1" d="M69.4845,1.3786l.228.1778C69.519,1.5316,69.519,1.5316,69.4845,1.3786Z"/><path class="cls-1" d="M20.0331,31.7145l.1833.1736C20.0172,31.8943,19.9749,31.84,20.0331,31.7145Z"/><path class="cls-1" d="M30.8748,31.0109c-.0534-.0433-.1134-.0707-.1176-.1023-.0032-.0244.0636-.0541.0993-.0814.0363.03.0847.0575.1035.0933C30.9681,30.9361,30.9153,30.97,30.8748,31.0109Z"/><path class="cls-1" d="M29.083,31.6811c-.1261-.05-.15-.1162-.0532-.1959a.1276.1276,0,0,1,.0965.0051C29.2188,31.5641,29.2278,31.6332,29.083,31.6811Z"/><path class="cls-1" d="M19.46,31.66l-.23-.1679.056-.0461.25.156Z"/><path class="cls-1" d="M72.118,1.0367l.1361.217-.2626-.0777Z"/><path class="cls-1" d="M67.3064,1.2108l-.2266-.05c.1122-.1128.1847-.0787.2527-.0138Z"/><path class="cls-1" d="M71.9915,1.176l.2626.0777-.0125-.0118-.03.192Z"/><path class="cls-1" d="M28.5245,31.2218c-.0487.04-.0754.08-.1089.0839a.1169.1169,0,0,1-.0908-.0583c-.0049-.0228.0361-.0673.0671-.0736S28.4645,31.1984,28.5245,31.2218Z"/><path class="cls-1" d="M68.2662,1.7012l-.08-.1544.0445-.025a.4268.4268,0,0,1,.1132.0721c.0186.0242.0037.0631.0037.0955Z"/><path class="cls-1" d="M70.5838,1.1336l-.2212-.1.03-.0477.2509.07Z"/><path class="cls-1" d="M72.6953.4036c.0546.0611.0981.0884.0957.1131s-.05.0484-.0777.0724c-.021-.0191-.0567-.037-.0594-.0574C72.65.5031,72.6711.4727,72.6953.4036Z"/><path class="cls-1" d="M21.1067,32.5252l.1815-.1881C21.3172,32.4953,21.227,32.5192,21.1067,32.5252Z"/><path class="cls-1" d="M6.8013,2.3752a.6076.6076,0,0,1-.1711.0417c-.0317-.0058-.0537-.0423-.08-.0653.03-.013.0613-.0378.09-.0359A.7466.7466,0,0,1,6.8013,2.3752Z"/><path class="cls-1" d="M6.3643,30.69a.4724.4724,0,0,1-.0576-.1059.1164.1164,0,0,1,.0755-.0287.0866.0866,0,0,1,.0576.0578C6.4411,30.631,6.4049,30.6506,6.3643,30.69Z"/><path class="cls-1" d="M26.3542,32.4878l.0839.09c-.0347.0174-.0723.051-.1033.0479-.0333-.0034-.0605-.0413-.09-.0642Z"/><path class="cls-1" d="M18.3015,31.0668l-.11-.1343.0539-.03.1361.1248Z"/><path class="cls-1" d="M66.5327,1.7615c.0463.0311.0937.0614.1369.0948l-.0338.0393c-.054-.0232-.1063-.049-.1587-.0744Z"/><path class="cls-1" d="M31.1527,30.9071c.0385.0315.0817.0588.0772.0646a.2283.2283,0,0,1-.0868.0664c-.0095.004-.07-.0341-.0665-.0438A.3732.3732,0,0,1,31.1527,30.9071Z"/><path class="cls-1" d="M19.58,31.1568l-.1318-.113.0472-.0378.15.0959Z"/><path class="cls-1" d="M30.6214,31.1394l-.0426-.1517.0756-.0172.0745.146Z"/><path class="cls-1" d="M26.4079,31.3127l-.0177-.1655.0858-.01.0392.1656Z"/><path class="cls-1" d="M74.2086,1.5609l-.27.0091c.1268-.0893.1268-.0893.26-.0022Z"/><path class="cls-1" d="M25.5315,32.1252c-.0351-.055-.07-.0855-.0658-.1123.0027-.0166.0651-.037.1012-.0377.0221,0,.0685.0394.0634.0508C25.6176,32.0547,25.5818,32.0775,25.5315,32.1252Z"/><path class="cls-1" d="M19.8869,31.3188l.1092.1351-.06.0334-.1261-.1284Z"/><path class="cls-1" d="M73.7363,1.3434a.4527.4527,0,0,1,.1129-.0646c.0183-.0041.05.0263.0762.041a.3523.3523,0,0,1-.0842.0694C73.8282,1.3951,73.7887,1.3673,73.7363,1.3434Z"/><path class="cls-1" d="M3.2928,4.5237l-.0852.0574a.2379.2379,0,0,1-.0519-.06c-.0039-.01.03-.0408.0379-.0391A.5483.5483,0,0,1,3.2928,4.5237Z"/><path class="cls-1" d="M68.4369,1.1272c.0245.0153.0594.0272.0677.0458.0055.0126-.0267.0347-.042.0525A.4211.4211,0,0,1,68.4,1.1693C68.396,1.1638,68.42,1.1461,68.4369,1.1272Z"/><path class="cls-1" d="M68.0005,1.21c-.0283-.0272-.0676-.0493-.0635-.065a.1.1,0,0,1,.0707-.05c.0167-.0028.0631.0312.0614.0464C68.0668,1.1621,68.0316,1.1809,68.0005,1.21Z"/><path class="cls-1" d="M23.0158,1.5648a.54.54,0,0,1,.0614-.0585l.0477.0246a.4721.4721,0,0,1-.05.0666Z"/><path class="cls-1" d="M65.3622.9017C65.413.89,65.4635.8772,65.5153.87l.0271.0642-.1562.0285Z"/><path class="cls-1" d="M27.3691,32.1647a.3865.3865,0,0,1-.0188-.1206c.0022-.0114.05-.0176.0774-.0261.0111.0243.0342.05.03.0726C27.4534,32.11,27.4179,32.1256,27.3691,32.1647Z"/><path class="cls-1" d="M71.0154.8391a.6077.6077,0,0,1-.0807.0726A.4473.4473,0,0,1,70.8317.85c-.0035-.0027.0244-.04.0348-.0393A1.3145,1.3145,0,0,1,71.0154.8391Z"/><path class="cls-1" d="M24.8369,32.1626c-.0574.0122-.0954.03-.1128.0218a.0679.0679,0,0,1-.0373-.0626c.0044-.0172.0441-.0293.0682-.0436Z"/><path class="cls-1" d="M22.6908,31.1587l.117.1074-.0775.04-.0927-.119Z"/><path class="cls-1" d="M70.1612.6878c-.0342-.039-.0719-.0662-.0649-.0773A.3249.3249,0,0,1,70.18.5453c.0221.0178.0662.04.0618.0527C70.2315.6262,70.1976.65,70.1612.6878Z"/><path class="cls-1" d="M66.73,1.7008a.5059.5059,0,0,1-.0451-.1355c0-.0133.0476-.0378.0717-.0366a.14.14,0,0,1,.0824.04C66.8456,1.5756,66.8111,1.6048,66.73,1.7008Z"/><path class="cls-1" d="M8.2643,2.7083C8.231,2.68,8.198,2.6648,8.196,2.6474c-.0025-.0214.0209-.0445.0332-.0668.0248.0137.0644.0246.07.042C8.3063,2.6423,8.2827,2.6678,8.2643,2.7083Z"/><path class="cls-1" d="M69.7882.2705c-.043-.0265-.0937-.05-.09-.0569a.1905.1905,0,0,1,.0757-.0745A.1386.1386,0,0,1,69.85.1719.4661.4661,0,0,1,69.7882.2705Z"/><path class="cls-1" d="M39.634,30.9311l.4509-.0192-.0922.195c.21.1237.2342-.1917.41-.1054.1872.0919.2638-.1945.4685-.05a.234.234,0,0,1-.1926.2515c-.0706.017-.1747-.0455-.2619-.0715-.2492.1007-.3549.309-.5211.5077l-.0494-.2738h-.4552C39.3821,31.1824,39.8775,31.2,39.634,30.9311Z"/><path class="cls-1" d="M98.878,32.2594c-.0265.01-.0925.0534-.1179.0425a.3816.3816,0,0,0-.3332.001.2316.2316,0,0,1-.2821-.071.3476.3476,0,0,1-.0781-.2764c.0558-.1537.27-.1545.4276-.0183C98.6149,32.0416,98.74,32.1434,98.878,32.2594Z"/><path class="cls-1" d="M100.87,32.62a2.3408,2.3408,0,0,1-.1579-.2186.2651.2651,0,0,1,.1434-.345.3033.3033,0,0,1,.3329.03c.1323.1021.1624.2373.0268.349a1.8445,1.8445,0,0,1-.3553.1762Z"/><path class="cls-1" d="M123.3533,10.08a.7576.7576,0,0,1,.0651.6059c-.03.0848.0321.1879.0544.2919-.2508.0523-.203.3761-.6262.4013.2306-.13.3133-.2433.2963-.4157-.0108-.1093.1347-.2229.1533-.34a1.72,1.72,0,0,0-.0532-.3526C123.24,10.2265,123.2937,10.1794,123.3533,10.08Z"/><path class="cls-1" d="M123.7614,16.2276c.0234-.1694.2356-.236.4573-.3508a.713.713,0,0,1-.0039.2232c-.0492.1331-.1241.2549-.0559.4038.0465.1015-.0808.1141-.1862.1154C123.85,16.5218,124.0552,16.32,123.7614,16.2276Z"/><path class="cls-1" d="M124.3384,21.6337l-.1192.4867-.4994-.147C123.7753,21.7144,124.0987,21.7863,124.3384,21.6337Z"/><path class="cls-1" d="M123.9588,9.7108c.1241.1293.2536.2559.3676.39a.1016.1016,0,0,1-.03.1191.2077.2077,0,0,1-.1586.0021,1.1287,1.1287,0,0,1-.2564-.263c-.0385-.0638-.0073-.1515-.0073-.2286Z"/><path class="cls-1" d="M95.8617,32.03c-.1215-.0092-.2431-.1207-.2328-.2131a.2679.2679,0,0,1,.2775-.1739c.1378.028.1876.1073.1789.21A.2.2,0,0,1,95.8617,32.03Z"/><path class="cls-1" d="M75.2252,31.4363c-.2115-.3044-.1987-.4574.0253-.6088A.7091.7091,0,0,1,75.2252,31.4363Z"/><path class="cls-1" d="M101.7921,30.9729a1.7073,1.7073,0,0,1-.3477.1852c-.0367.01-.1552-.0813-.1813-.14-.0347-.0783.1432-.1842.2784-.1653A1.0853,1.0853,0,0,1,101.7921,30.9729Z"/><path class="cls-1" d="M98.6778,30.888c.0028-.1539.1124-.1781.2224-.1882.1134-.01.19.0347.1973.1242.0074.0875-.0539.1514-.17.1408A1.1217,1.1217,0,0,1,98.6778,30.888Z"/><path class="cls-1" d="M122.2667,18.8756a.6207.6207,0,0,1,.2058-.6151A.7534.7534,0,0,1,122.2667,18.8756Z"/><path class="cls-1" d="M122.8967,11.9935l.2845-.4454C123.3778,11.8129,123.3242,11.9071,122.8967,11.9935Z"/><path class="cls-1" d="M123.7976,12.0076c.1245.09.2547.177.369.2743.0249.0212-.0072.0806-.0155.1407-.28-.051-.3218-.2235-.4266-.3552Z"/><path class="cls-1" d="M100.6425,30.5923c.0809.0587.162.09.1685.1277.0148.0865-.063.1466-.1786.1347-.0517-.0054-.1359-.0691-.13-.0984C100.5112,30.7057,100.5791,30.6612,100.6425,30.5923Z"/><path class="cls-1" d="M123.7875,13.8148c.2605.1626.2606.1636.0736.4613Z"/><path class="cls-1" d="M122.8606,13.47c.1718.0866.3928.1232.4545.3245l-.5167-.2643Z"/><path class="cls-1" d="M123.9731,18.3661l-.06-.2192c.0581-.0091.1227-.0335.1437-.02a1.7815,1.7815,0,0,1,.2033.18Z"/><path class="cls-1" d="M122.6131,19.1732a.8691.8691,0,0,1,.6108-.13A.781.781,0,0,1,122.6131,19.1732Z"/><path class="cls-1" d="M100.0718,31.7611l.3257.0875C100.1766,31.9939,100.1756,31.9952,100.0718,31.7611Z"/><path class="cls-1" d="M122.5867,27.2661l.0927-.316.058.0035c.0032.0476-.01.1007.0129.1417C122.8146,27.208,122.8208,27.206,122.5867,27.2661Z"/><path class="cls-1" d="M38.94,32.416l.2382-.0783c.0221.1573-.0386.2458-.2289.3263V32.41Z"/><path class="cls-1" d="M94.5916,31.6843c.0736.07.1417.1111.16.1625.0089.0247-.0758.0686-.1182.1038-.0535-.0369-.1316-.0677-.1519-.1131C94.468,31.8072,94.5369,31.7559,94.5916,31.6843Z"/><path class="cls-1" d="M122.476,12.4356c.044-.1211-.24-.2478.0251-.3787C122.5555,12.1932,122.6292,12.313,122.476,12.4356Z"/><path class="cls-1" d="M123.1485,21.593l.2142-.4265.0636.0153-.1769.4373Z"/><path class="cls-1" d="M122.2335,19.1265c-.1387.158-.019.3255-.2415.41C122.0007,19.2632,122.0375,19.1768,122.2335,19.1265Z"/><path class="cls-1" d="M40.2553,31.9292c-.0749-.1287-.1505-.0459-.226,0a.8828.8828,0,0,1,.1215-.1514,1.4609,1.4609,0,0,1,.2064-.1189C40.4506,31.7743,40.37,31.8545,40.2553,31.9292Z"/><path class="cls-1" d="M122.2389,24.7976l-.0816.4056-.1-.0131.102-.4214Z"/><path class="cls-1" d="M38.9312,32.02l.3946.1177c-.0456.0349-.0954.1-.1322.0963-.1583-.017-.2637-.0859-.2555-.2217Z"/><path class="cls-1" d="M98.0394,31.2816l-.133.1059-.138-.0991c.04-.0279.0764-.0731.1211-.0783C97.9268,31.2057,97.9737,31.2481,98.0394,31.2816Z"/><path class="cls-1" d="M122.1985,21.3c.0166.0148.0288.0208.0313.0286.0312.0956.0265.1822-.1247.2142a.11.11,0,0,1-.0854-.0359C121.9823,21.39,122.0459,21.3213,122.1985,21.3Z"/><path class="cls-1" d="M104.8029,31.0875c-.0489-.0607-.1067-.1012-.0971-.1281.0138-.0389.0764-.068.1182-.1012.0386.0285.1143.063.1082.0842C104.92,30.9865,104.8638,31.0236,104.8029,31.0875Z"/><path class="cls-1" d="M122.4644,14.2914v-.3293C122.577,14.1268,122.577,14.1268,122.4644,14.2914Z"/><path class="cls-1" d="M42.011,31.4377h-.2294l-.0288-.0483.2687-.1852-.0159.2377Z"/><path class="cls-1" d="M124.1459,24.4765c-.0622.164-.1481.1507-.2794.03Z"/><path class="cls-1" d="M113.27,32.5455l-.16.0829a.5888.5888,0,0,1-.1015-.1248c-.0061-.0136.0757-.0694.0879-.0645A1.14,1.14,0,0,1,113.27,32.5455Z"/><path class="cls-1" d="M118.1079,31.5106c-.07-.14-.0051-.26.099-.4228.0993.1943-.0987.2885-.1057.4165Z"/><path class="cls-1" d="M44.0934,31.7514l.2494-.2226.0705.0422-.2256.2468Z"/><path class="cls-1" d="M121.9567,13.5529l.0283-.2729.0773.0024v.2727Z"/><path class="cls-1" d="M42.3094,31.79l.2429.04-.2075.2125-.0661-.02Z"/><path class="cls-1" d="M92.3071,30.9077c-.084.0206-.1353.0471-.172.0385a.1559.1559,0,0,1-.0988-.08c-.0075-.02.0437-.0523.0686-.0792Z"/><path class="cls-1" d="M41.7692,31.8508c.0194.1031.0263.202-.1527.2425C41.5452,31.9639,41.6514,31.9045,41.7692,31.8508Z"/><path class="cls-1" d="M122.8152,14.657v-.3335C122.9451,14.4225,122.9451,14.4225,122.8152,14.657Z"/><path class="cls-1" d="M123.5949,23.87a2.0833,2.0833,0,0,1,.2153.0043c.0079.0009.0051.0607.0073.0932l-.2287-.0126Z"/><path class="cls-1" d="M121.7784,14.05l.07-.2545.0891.0086-.0359.252Z"/><path class="cls-1" d="M102.0379,32.5105l-.1349.0775c-.0236-.0269-.0725-.0592-.065-.08.0121-.0328.0616-.0576.0953-.0857Z"/><path class="cls-1" d="M102.4466,30.7828c-.0451.14-.09.1987-.2711.1327Z"/><path class="cls-1" d="M93.8805,32.4439c-.0612.042-.0914.0788-.1211.0786a.1414.1414,0,0,1-.0873-.0587c-.006-.0077.0339-.0508.0567-.0529A.6275.6275,0,0,1,93.8805,32.4439Z"/><path class="cls-1" d="M120.3333,27.4994l-.047.1725-.0628-.0095.0422-.1731Z"/><path class="cls-1" d="M123.9033,20.5106c-.0723.0219-.1159.048-.1465.041-.0351-.0079-.0586-.045-.0872-.07.0346-.0169.0708-.0487.1033-.0467C123.8078,20.4376,123.8392,20.4716,123.9033,20.5106Z"/><path class="cls-1" d="M46.9433,31.545l.1563-.2207C47.1251,31.48,47.1251,31.48,46.9433,31.545Z"/><path class="cls-1" d="M44.372,32.1856l-.2233.1461c-.0188-.1584.06-.1884.1661-.1988Z"/><path class="cls-1" d="M123.5794,11.2357l.05.1507-.067.0187-.091-.1482Z"/><path class="cls-1" d="M85.2224,31.119l-.0692.06-.0873-.0669c.0235-.0164.0491-.0473.07-.0456C85.1636,31.0684,85.1876,31.0962,85.2224,31.119Z"/><path class="cls-1" d="M43.9189,32.4866l.3127.0126C44.1239,32.6694,44.0424,32.5827,43.9189,32.4866Z"/><path class="cls-1" d="M101.7056,31.43a1.1249,1.1249,0,0,1,.0041-.1481.5932.5932,0,0,1,.0917-.006v.1538Z"/><path class="cls-1" d="M42.0056,31.4419l.142.1307-.2554.06c.0532-.0886.0845-.1407.1173-.1941Z"/><path class="cls-1" d="M93.3,31.7722c.0423.0515.0862.0817.0841.11-.0016.0207-.0667.0564-.0977.0532a.1056.1056,0,0,1-.0761-.0722C93.2084,31.84,93.2561,31.8142,93.3,31.7722Z"/><path class="cls-1" d="M37.0707,31.8671c.0686.04.21.03.1639.2042l-.2187-.1652Z"/><path class="cls-1" d="M101.3812,31.6741c-.0432-.041-.0876-.0647-.0874-.0881a.0965.0965,0,0,1,.07-.065c.0356.0009.0922.0292.0983.0522S101.4224,31.6261,101.3812,31.6741Z"/><path class="cls-1" d="M120.5233,27.9859l-.1211.29C120.3486,28.1318,120.3486,28.1318,120.5233,27.9859Z"/><path class="cls-1" d="M123.3661,15.2232l-.16.2032C123.1035,15.3039,123.1492,15.2574,123.3661,15.2232Z"/><path class="cls-1" d="M123.8624,23.5521l.1854-.0169.01.06-.1858.0148Z"/><path class="cls-1" d="M41.7517,30.8457l.1789.0925c-.1737.0436-.1737.0436-.17-.1Z"/><path class="cls-1" d="M123.78,23.1505c-.0515.0186-.09.0435-.1082.0368a.3161.3161,0,0,1-.0848-.0672c.0258-.0143.06-.0444.0759-.04A.5425.5425,0,0,1,123.78,23.1505Z"/><path class="cls-1" d="M102.6677,30.9826l.0873.0452-.0684.0744c-.0242-.0166-.0628-.0309-.0683-.05C102.6134,31.0344,102.6457,31.0113,102.6677,30.9826Z"/><path class="cls-1" d="M96.6715,31.2338a.5521.5521,0,0,1-.14.0432c-.0244,0-.0492-.0337-.0738-.0523a.486.486,0,0,1,.1157-.0554C96.5905,31.1656,96.6223,31.2,96.6715,31.2338Z"/><path class="cls-1" d="M122.9579,14.1191l-.2022-.1064C122.9075,13.9311,122.9075,13.9311,122.9579,14.1191Z"/><path class="cls-1" d="M123.787,12.7091l.0825.0442-.0573.0537a.5781.5781,0,0,1-.0726-.055Z"/><path class="cls-1" d="M44.4548,31.94l-.1578.0987a.3071.3071,0,0,1-.0686-.0807c-.0042-.0113.0425-.0472.0669-.0477A.8257.8257,0,0,1,44.4548,31.94Z"/><path class="cls-1" d="M105.4341,32.0558l.0513.064a.2441.2441,0,0,1-.0855.0257c-.0209-.0021-.0373-.0306-.0557-.0474Z"/><path class="cls-1" d="M38.9491,32.41c-.1445.0358-.229.0125-.1724-.1391.0538.0488.1077.0977.1623.1459Z"/><path class="cls-1" d="M92.5181,32.45l-.0772.0535c-.0185-.0171-.0435-.0324-.0528-.052-.0042-.009.0261-.039.034-.0376A.5485.5485,0,0,1,92.5181,32.45Z"/><path class="cls-1" d="M123.9523,24.2728c-.0131.0241-.0216.0516-.029.0514a.5346.5346,0,0,1-.0914-.0157c.0085-.015.0144-.0413.0259-.0428A.454.454,0,0,1,123.9523,24.2728Z"/><path class="cls-1" d="M93.94,1.9291c-.2156-.157-.1877-.38-.2328-.58a2.2142,2.2142,0,0,1-.018-.4173c-.0064-.1979.0642-.3041.2283-.3426a.6749.6749,0,0,1,.604.1857l-.3792.05a1.1539,1.1539,0,0,0,.1715.6572l-.2726.1024v.3322Z"/><path class="cls-1" d="M90.5106.3935c.2486.1416.1536.2969.1308.4435-.0033.0212-.1022.0553-.141.046-.0422-.01-.0979-.0672-.0925-.0983C90.431.6532,90.4746.5237,90.5106.3935Z"/><path class="cls-1" d="M94.9637.4966l.0995.5544c-.0693-.013-.1495-.0111-.1639-.0334A.4738.4738,0,0,1,94.86.5022Z"/><path class="cls-1" d="M95.3261,1.99c-.0514-.0393-.1334-.0735-.1469-.1192a.3515.3515,0,0,1,.0307-.2023.22.22,0,0,1,.1235-.009.48.48,0,0,1,.08.1676.3931.3931,0,0,1-.0094.1291Z"/><path class="cls-1" d="M116.2577,1.447c.0842.1733-.048.27-.2018.3744C115.9993,1.6185,116.0237,1.5748,116.2577,1.447Z"/><path class="cls-1" d="M99.3171,1.6894l-.1392-.1.1366-.1082c.0428.0354.1016.0667.1209.1084C99.4437,1.6076,99.3694,1.6472,99.3171,1.6894Z"/><path class="cls-1" d="M89.1381.288a.4348.4348,0,0,1,.4493.1079A.3787.3787,0,0,1,89.1381.288Z"/><path class="cls-1" d="M90.5109,1.5053v.339C90.3422,1.7,90.3447,1.6031,90.5109,1.5053Z"/><path class="cls-1" d="M102.1344.1864c-.0877.0953-.1721.1254-.275.0472-.0186-.0142-.0264-.0592-.0118-.0718C101.9386.0835,102.0294.0974,102.1344.1864Z"/><path class="cls-1" d="M89.7411,1.59c-.1654-.0223-.17-.092-.1275-.1664a.1532.1532,0,0,1,.117-.0253C89.8275,1.4491,89.8281,1.5153,89.7411,1.59Z"/><path class="cls-1" d="M97.8636.6486,97.619.6879C97.6138.6541,97.5877.6021,97.6068.59A.1668.1668,0,0,1,97.8636.6486Z"/><path class="cls-1" d="M91.4125,1.0132a.5612.5612,0,0,1-.1522.0849c-.0262.0043-.0657-.0374-.0992-.0583a.39.39,0,0,1,.11-.08C91.2953.952,91.342.985,91.4125,1.0132Z"/><path class="cls-1" d="M88.7049,1.49c-.0562-.028-.1129-.0555-.1669-.0857l.0262-.0412.1858.0731Z"/><path class="cls-1" d="M91.4535.2312,91.2666.1884,91.29.13l.1868.0433Z"/><path class="cls-1" d="M121.5521,4.5477l.1952-.0753.1935.2006a4.5534,4.5534,0,0,0-.2347.5016,3.604,3.604,0,0,0-.0929.5027c-.2645-.098-.0554-.2938-.2559-.3906l-.1256.2482-.048-.0007a2.1343,2.1343,0,0,1,.0054-.3394.2085.2085,0,0,1,.1178-.1481c.1624-.0528.2046-.1558.1511-.2483-.0722-.125.0379-.1795.1025-.2573Z"/><path class="cls-1" d="M122.0286,6.9152c-.1734-.0207-.258-.0847-.21-.2231.0789-.2272.16-.454.2493-.7061C122.2848,6.1688,122.2777,6.25,122.0286,6.9152Z"/><path class="cls-1" d="M121.5274,3.75a3.5479,3.5479,0,0,1,.0247.7975l.0084-.0066c-.05-.0134-.1237-.0152-.1469-.042a.4585.4585,0,0,1,.0845-.6768c.02-.017.02-.0467.0287-.07Z"/><path class="cls-1" d="M121.1331,4.6823a.3974.3974,0,0,1-.3086.5281Z"/><path class="cls-1" d="M122.3077,7.4927c-.0587-.3116-.0221-.3436.3209-.3553Z"/><path class="cls-1" d="M121.5268,3.7519c.14-.0084.2709-.0012.265.1413-.004.0959.0262.2037-.1057.2766-.0557-.1471-.1073-.283-.1588-.4193Z"/><path class="cls-1" d="M121.3472,6.8818l.0691-.1446c.2009.06.2009.06.2021.2155Z"/><path class="cls-1" d="M122.1957,7.0426c-.0575-.1148-.0971-.2263.1429-.3182l-.0615.3245Z"/><path class="cls-1" d="M122.16,7.6668l-.1115.2239C121.9681,7.7484,121.9681,7.7484,122.16,7.6668Z"/><path class="cls-1" d="M122.6511,4.9188l-.1536.1837C122.4706,4.97,122.4706,4.97,122.6511,4.9188Z"/><path class="cls-1" d="M121.8864,4.104l-.0278-.2589C122.019,3.9462,121.9954,4.0073,121.8864,4.104Z"/><path class="cls-1" d="M122.6749,4.5393l-.1865.2339c-.0809-.22.07-.214.1977-.2251Z"/><path class="cls-1" d="M121.7426,8.33l.2017-.18c.0224.027.0476.0455.0427.0532C121.9475,8.2664,121.9332,8.3578,121.7426,8.33Z"/><path class="cls-1" d="M121.7856,8.0166c-.0213.0357-.042.0715-.0663.106l-.0552-.0187a1.1314,1.1314,0,0,1,.0431-.1143Z"/><path class="cls-1" d="M118.8868,3.5938c-.0294-.0443-.097-.0993-.0814-.1311a.4142.4142,0,0,0,.0533-.3785c-.0176-.0389.06-.1064.1052-.1546a.1492.1492,0,0,1,.0987.0052c.0287.0554.0761.1226.0565.1719-.0665.1673-.1585.3289-.2408.4928Z"/><path class="cls-1" d="M117.7325,1.8054l.0863-.2127.1007.025-.098.21Z"/><path class="cls-1" d="M84.6765,2.0383c-.0581-.1437.0782-.1837.204-.243.0654.1687.0654.1687-.215.2338Z"/><path class="cls-1" d="M83.0822,2.0255l.2916-.0279c-.1575.1677-.1575.1677-.28.0189Z"/><path class="cls-1" d="M86.8377,1.3755c.0394.0587.0865.1253-.0408.15-.1036.02-.1666-.0265-.1481-.1059.0246-.1053.1205-.0538.1962-.04Z"/><path class="cls-1" d="M86.9394.3636,86.8858.2254l.0624-.0178.0712.1354Z"/><path class="cls-1" d="M86.845,1.38l.1828-.1553c.0394.1585.0394.1585-.1886.1518Z"/></g></g></svg>