<?xml version="1.0" encoding="utf-8"?>
<!-- Generator: Adobe Illustrator 24.1.0, SVG Export Plug-In . SVG Version: 6.00 Build 0)  -->
<svg version="1.1" id="Layer_1" xmlns="http://www.w3.org/2000/svg" xmlns:xlink="http://www.w3.org/1999/xlink" x="0px" y="0px"
	 viewBox="0 0 40 40" style="enable-background:new 0 0 40 40;" xml:space="preserve">
<style type="text/css">
	.st0{fill:#FF13DC;fill-opacity:0;}
	.st1{fill:#6E6E6E;}
</style>
<rect id="Canvas" x="1" y="1.7" class="st0" width="36.4" height="36.4"/>
<path class="st1" d="M34.6,6.9L2.8,16.3c-0.3,0.1-0.4,0.4-0.3,0.6c0,0.1,0.1,0.2,0.3,0.3l8,4L34.6,6.9z"/>
<path class="st1" d="M14.2,23L26.3,29c0.5,0.3,1.1,0,1.4-0.4l0,0L37,8.1L14.2,23z"/>
<path class="st1" d="M11.2,25.2v7.7c0,0.4,0.3,0.7,0.7,0.7c0.2,0,0.3-0.1,0.5-0.2l5.4-4.6L11.2,25.2z"/>
</svg>
