<?xml version="1.0" encoding="utf-8"?>
<!-- Generator: Adobe Illustrator 24.1.0, SVG Export Plug-In . SVG Version: 6.00 Build 0)  -->
<svg version="1.1" id="Layer_1" xmlns="http://www.w3.org/2000/svg" xmlns:xlink="http://www.w3.org/1999/xlink" x="0px" y="0px"
	 viewBox="0 0 40 40" style="enable-background:new 0 0 40 40;" xml:space="preserve">
<style type="text/css">
	.st0{fill:#FF13DC;fill-opacity:0;}
	.st1{fill:#6E6E6E;}
</style>
<rect id="Canvas" x="4.3" y="4.2" class="st0" width="31.6" height="31.6"/>
<path class="st1" d="M18.2,32.3h-1.6v-3.5h0.7c0-0.3,0-0.6,0-0.9c0-0.3,0-0.6,0-0.9h-0.7v-3.5h1.6c0.3-0.6,0.6-1.2,1-1.8h-2.5v-3.5
	h6.6c3.5-1.8,7.7-1.5,11,0.8V6.8c0-0.5-0.4-0.9-0.9-0.9H7c-0.5,0-0.9,0.4-0.9,0.9v26.4C6.1,33.7,6.5,34,7,34h12.2
	C18.8,33.5,18.5,32.9,18.2,32.3z M7.8,7.7h24.6v8.8H7.8V7.7z M14.9,32.3h-7v-3.5h7V32.3z M14.9,27h-7v-3.5h7V27z M14.9,21.7h-7v-3.5
	h7V21.7z"/>
<path class="st1" d="M28.1,20.1c-4.3,0-7.8,3.5-7.8,7.8s3.5,7.8,7.8,7.8s7.8-3.5,7.8-7.8S32.4,20.1,28.1,20.1L28.1,20.1z M32.4,28.3
	c0,0.2-0.2,0.4-0.4,0.4h-3.1v3.1c0,0.2-0.2,0.4-0.4,0.4h-0.9c-0.2,0-0.4-0.2-0.4-0.4v-3.1h-3.1c-0.2,0-0.4-0.2-0.4-0.4v-0.9
	c0-0.2,0.2-0.4,0.4-0.4h3.1v-3.1c0-0.2,0.2-0.4,0.4-0.4h0.9c0.2,0,0.4,0.2,0.4,0.4V27H32c0.2,0,0.4,0.2,0.4,0.4V28.3z"/>
</svg>
