<?xml version="1.0" encoding="utf-8"?>
<!-- Generator: Adobe Illustrator 24.1.0, SVG Export Plug-In . SVG Version: 6.00 Build 0)  -->
<svg version="1.1" id="Layer_1" xmlns="http://www.w3.org/2000/svg" xmlns:xlink="http://www.w3.org/1999/xlink" x="0px" y="0px"
	 viewBox="0 0 40 40" style="enable-background:new 0 0 40 40;" xml:space="preserve">
<style type="text/css">
	.st0{fill:#FF13DC;fill-opacity:0;}
	.st1{fill:#6E6E6E;}
</style>
<rect id="Canvas" x="1" y="0.2" class="st0" width="38.5" height="38.5"/>
<path class="st1" d="M6.3,28h6.4c0.6,0,1.1,0.5,1.1,1.1v6.4c0,0.6-0.5,1.1-1.1,1.1H6.3c-0.6,0-1.1-0.5-1.1-1.1v-6.4
	C5.3,28.5,5.8,28,6.3,28z"/>
<path class="st1" d="M17,10.9h6.4c0.6,0,1.1,0.5,1.1,1.1v23.5c0,0.6-0.5,1.1-1.1,1.1H17c-0.6,0-1.1-0.5-1.1-1.1V12
	C16,11.4,16.4,10.9,17,10.9z"/>
<path class="st1" d="M27.7,23.8h6.4c0.6,0,1.1,0.5,1.1,1.1v10.7c0,0.6-0.5,1.1-1.1,1.1h-6.4c-0.6,0-1.1-0.5-1.1-1.1V24.8
	C26.7,24.2,27.1,23.8,27.7,23.8z"/>
<path class="st1" d="M13.8,17.3H7.9c-0.3,0-0.5-0.2-0.5-0.5v-1.1c0-0.3,0.2-0.5,0.5-0.5h5.9V17.3z"/>
<path class="st1" d="M9.3,6.9l4.5,2.9l-1.2,1.8L8.2,8.7C7.9,8.6,7.8,8.3,8,8l0,0l0.6-0.9C8.7,6.9,9.1,6.8,9.3,6.9
	C9.3,6.9,9.3,6.9,9.3,6.9L9.3,6.9z"/>
<path class="st1" d="M18.8,8.8l-2-6.4c0-0.1-0.2-0.2-0.3-0.2h0l-1.5,0.5c-0.1,0-0.2,0.2-0.2,0.3v0l1.8,5.7H18.8z"/>
<path class="st1" d="M26.7,17.3h5.9c0.3,0,0.5-0.2,0.5-0.5v-1.1c0-0.3-0.2-0.5-0.5-0.5h-5.9V17.3z"/>
<path class="st1" d="M31.2,6.9l-4.5,2.9l1.2,1.8l4.5-2.9c0.2-0.2,0.3-0.5,0.2-0.7l0,0l-0.6-0.9C31.8,6.9,31.4,6.8,31.2,6.9
	C31.2,6.9,31.2,6.9,31.2,6.9L31.2,6.9z"/>
<path class="st1" d="M21.7,8.8l2-6.4c0-0.1,0.2-0.2,0.3-0.2h0l1.5,0.5c0.1,0,0.2,0.2,0.2,0.3v0L24,8.8H21.7z"/>
</svg>
