<?xml version="1.0" encoding="utf-8"?>
<!-- Generator: Adobe Illustrator 24.1.0, SVG Export Plug-In . SVG Version: 6.00 Build 0)  -->
<svg version="1.1" id="Layer_1" xmlns="http://www.w3.org/2000/svg" xmlns:xlink="http://www.w3.org/1999/xlink" x="0px" y="0px"
	 viewBox="0 0 40 40" style="enable-background:new 0 0 40 40;" xml:space="preserve">
<style type="text/css">
	.st0{fill:#FF13DC;fill-opacity:0;}
	.st1{fill:#6E6E6E;}
</style>
<rect id="Canvas" x="3" y="3" class="st0" width="35" height="35"/>
<path class="st1" d="M10.7,10.9c2.1,0,3.8-1.7,3.8-3.8s-1.7-3.8-3.8-3.8S6.9,5,6.9,7.1l0,0C6.9,9.2,8.6,10.9,10.7,10.9z"/>
<path class="st1" d="M20.4,10.9c2.1,0,3.8-1.7,3.8-3.8s-1.7-3.8-3.8-3.8S16.6,5,16.6,7.1v0C16.6,9.2,18.3,10.9,20.4,10.9z"/>
<path class="st1" d="M30.2,10.9c2.1,0,3.8-1.7,3.8-3.8s-1.7-3.8-3.8-3.8c-2.1,0-3.8,1.7-3.8,3.8v0C26.4,9.2,28.1,10.9,30.2,10.9z"/>
<path class="st1" d="M30.4,12.7H30c-1.7-0.1-3.5,0.6-4.7,1.8c-1.2-1.3-2.9-1.9-4.7-1.8h-0.4c-1.7-0.1-3.5,0.6-4.7,1.8
	c-1.2-1.3-2.9-1.9-4.7-1.8h-0.4c-3.1,0-5.6,1.6-5.6,4.7v7c0,0.5,0.4,1,1,1h1l1,9.7c0,0.5,0.4,1,1,1h3.9c0.5,0,1-0.4,1-1l1-9.7h1.9
	l1,9.7c0,0.5,0.4,1,1,1h3.9c0.5,0,1-0.4,1-1l1-9.7h1.9l1,9.7c0,0.5,0.4,1,1,1h3.9c0.5,0,1-0.4,1-1l1-9.7h1c0.5,0,1-0.4,1-1v-7
	C36,14.3,33.5,12.7,30.4,12.7z"/>
</svg>
