<?xml version="1.0" encoding="utf-8"?>
<!-- Generator: Adobe Illustrator 24.1.0, SVG Export Plug-In . SVG Version: 6.00 Build 0)  -->
<svg version="1.1" id="Layer_1" xmlns="http://www.w3.org/2000/svg" xmlns:xlink="http://www.w3.org/1999/xlink" x="0px" y="0px"
	 viewBox="0 0 40 40" style="enable-background:new 0 0 40 40;" xml:space="preserve">
<style type="text/css">
	.st0{fill:#FF13DC;fill-opacity:0;}
	.st1{fill:#6E6E6E;}
</style>
<rect id="Canvas" y="2" class="st0" width="39" height="39"/>
<path class="st1" d="M2.2,5.2v30.3c0,0.6,0.5,1.1,1.1,1.1h32.5c0.6,0,1.1-0.5,1.1-1.1V5.2c0-0.6-0.5-1.1-1.1-1.1H3.2
	C2.7,4.2,2.2,4.7,2.2,5.2z M34.7,34.5H4.3V6.3h30.3V34.5z"/>
<path class="st1" d="M10.3,19.2c-0.3,0-0.5-0.1-0.7-0.3l-2.3-2.1c-0.4-0.4-0.5-1.1-0.1-1.5s1.1-0.5,1.5-0.1c0,0,0,0,0,0l1.4,1.3
	l4.6-5.5c0.4-0.5,1.1-0.5,1.5-0.1c0.5,0.4,0.5,1.1,0.1,1.5c0,0,0,0,0,0l-5.4,6.3C11,19.1,10.7,19.2,10.3,19.2L10.3,19.2z"/>
<path class="st1" d="M10.3,30.1c-0.3,0-0.5-0.1-0.7-0.3l-2.3-2.1c-0.4-0.4-0.5-1.1-0.1-1.5c0.4-0.4,1.1-0.5,1.5-0.1l1.4,1.3l4.6-5.5
	c0.4-0.5,1.1-0.5,1.5-0.1c0.5,0.4,0.5,1.1,0.1,1.5c0,0,0,0,0,0l-5.4,6.3C11,29.9,10.7,30.1,10.3,30.1L10.3,30.1z"/>
<path class="st1" d="M20,12.8h9.8c0.3,0,0.5,0.2,0.5,0.5v3.2c0,0.3-0.2,0.5-0.5,0.5H20c-0.3,0-0.5-0.2-0.5-0.5v-3.2
	C19.5,13.1,19.7,12.8,20,12.8z"/>
<path class="st1" d="M20,23.7h9.8c0.3,0,0.5,0.2,0.5,0.5v3.2c0,0.3-0.2,0.5-0.5,0.5H20c-0.3,0-0.5-0.2-0.5-0.5v-3.2
	C19.5,23.9,19.7,23.7,20,23.7z"/>
</svg>
