<?xml version="1.0" encoding="utf-8"?>
<!-- Generator: Adobe Illustrator 23.0.6, SVG Export Plug-In . SVG Version: 6.00 Build 0)  -->
<svg version="1.1" id="S_FileSpace_24_N_1x" xmlns="http://www.w3.org/2000/svg" xmlns:xlink="http://www.w3.org/1999/xlink"
	 x="0px" y="0px" viewBox="0 0 24 24" style="enable-background:new 0 0 24 24;" xml:space="preserve">
<style type="text/css">
	.st0{fill:#3753B9;fill-opacity:0;}
	.st1{fill:#3753B9;}
</style>
<title>S_FileSpace_24_N@1x</title>
<rect id="Canvas" x="4.5" y="4.5" class="st0" width="15" height="15"/>
<ellipse class="st1" cx="12" cy="7.7" rx="6.2" ry="2"/>
<path class="st1" d="M12,14.5c-1.9,0-5.6-0.5-6.2-1.6v3.3c0,1.1,2.8,2,6.2,2s6.2-0.9,6.2-2V13C17.3,14.2,13.9,14.5,12,14.5z"/>
<path class="st1" d="M12,10.9c-1.9,0-5.6-0.5-6.2-1.6v2c0,1.1,2.8,2,6.2,2s6.2-0.9,6.2-2v-2C17.3,10.6,13.9,10.9,12,10.9z"/>
</svg>
