<?xml version="1.0" encoding="utf-8"?>
<!-- Generator: Adobe Illustrator 23.0.6, SVG Export Plug-In . SVG Version: 6.00 Build 0)  -->
<svg version="1.1" id="S_FileSpace_24_N_1x" xmlns="http://www.w3.org/2000/svg" xmlns:xlink="http://www.w3.org/1999/xlink"
	 x="0px" y="0px" viewBox="0 0 24 24" style="enable-background:new 0 0 24 24;" xml:space="preserve">
<style type="text/css">
	.st0{fill:#3753B9;fill-opacity:0;}
	.st1{fill:#3753B9;}
</style>
<title>S_FileSpace_24_N@1x</title>
<rect id="Canvas" x="4.5" y="4.5" class="st0" width="15" height="15"/>
<path class="st1" d="M18.3,6.5L5.1,10.4c-0.2,0-0.3,0.2-0.2,0.4c0,0.1,0.1,0.2,0.2,0.2l3,1.5L18.3,6.5z"/>
<path class="st1" d="M9.5,13.3l5,2.5c0.2,0.1,0.4,0,0.4-0.1c0,0,0,0,0,0L19.3,7L9.5,13.3z"/>
<path class="st1" d="M8.3,14.2v3.2c0,0.2,0.1,0.3,0.3,0.3c0.1,0,0.1,0,0.2-0.1l2.2-1.9L8.3,14.2z"/>
</svg>
