<?xml version="1.0" encoding="utf-8"?>
<!-- Generator: Adobe Illustrator 24.1.0, SVG Export Plug-In . SVG Version: 6.00 Build 0)  -->
<svg version="1.1" id="Layer_1" xmlns="http://www.w3.org/2000/svg" xmlns:xlink="http://www.w3.org/1999/xlink" x="0px" y="0px"
	 viewBox="0 0 40 40" style="enable-background:new 0 0 40 40;" xml:space="preserve">
<style type="text/css">
	.st0{fill:#FF13DC;fill-opacity:0;}
	.st1{fill:#6E6E6E;}
</style>
<rect id="Canvas" x="1" y="2" class="st0" width="38" height="38"/>
<path class="st1" d="M10.4,30.1L8.7,32l-3.9-7.6l-3.7,2.8l1.5,2.5l1.3-1.1l4.7,8.7l4.2-5.6C11.9,31.3,11.1,30.7,10.4,30.1z"/>
<path class="st1" d="M25.4,22.4l3.1-3.6c0-1.1-0.2-2.3-0.7-3.3l-2,2.4l-3.5-5c-0.1,0-0.1,0-0.2-0.1l-8.1,11.9
	c0.7,0.7,1.5,1.2,2.3,1.7l5.9-8.7L25.4,22.4z"/>
<path class="st1" d="M33.7,13.5l5.1-5.7l-2.1-1.9l-4.4,5C32.9,11.6,33.4,12.5,33.7,13.5z"/>
<path class="st1" d="M38.3,34l-7.9-7.9c4-5.8,2.5-13.7-3.2-17.6S13.5,5.9,9.6,11.7S7,25.3,12.8,29.3c4.3,3,10.1,3,14.4,0l7.9,7.9
	c0.9,0.8,2.4,0.7,3.2-0.2C39,36.1,39,34.8,38.3,34z M9.4,18.9c0-5.8,4.7-10.6,10.6-10.6s10.6,4.7,10.6,10.6S25.8,29.4,20,29.4
	S9.4,24.7,9.4,18.9z"/>
</svg>
