<?xml version="1.0" encoding="utf-8"?>
<!-- Generator: Adobe Illustrator 24.1.0, SVG Export Plug-In . SVG Version: 6.00 Build 0)  -->
<svg version="1.1" id="Layer_1" xmlns="http://www.w3.org/2000/svg" xmlns:xlink="http://www.w3.org/1999/xlink" x="0px" y="0px"
	 viewBox="0 0 40 40" style="enable-background:new 0 0 40 40;" xml:space="preserve">
<style type="text/css">
	.st0{fill:#FF13DC;fill-opacity:0;}
	.st1{fill:#6E6E6E;}
</style>
<rect id="Canvas" x="2" y="2" class="st0" width="35.5" height="35.5"/>
<ellipse class="st1" cx="19.8" cy="8.9" rx="15.8" ry="4.9"/>
<path class="st1" d="M19.8,25.9c-4.9,0-14-1.2-15.8-3.9v8.6c0,2.7,7.1,4.9,15.8,4.9s15.8-2.2,15.8-4.9V22
	C33.1,25,24.6,25.9,19.8,25.9z"/>
<path class="st1" d="M19.8,16.1c-4.9,0-14-1.2-15.8-4v6.6c0,2.7,7.1,4.9,15.8,4.9s15.8-2.2,15.8-4.9v-6.6
	C33.1,15.2,24.6,16.1,19.8,16.1z"/>
</svg>
