<?xml version="1.0" encoding="utf-8"?>
<!-- Generator: Adobe Illustrator 23.0.6, SVG Export Plug-In . SVG Version: 6.00 Build 0)  -->
<svg version="1.1" id="S_FileSpace_24_N_1x" xmlns="http://www.w3.org/2000/svg" xmlns:xlink="http://www.w3.org/1999/xlink"
	 x="0px" y="0px" viewBox="0 0 24 24" style="enable-background:new 0 0 24 24;" xml:space="preserve">
<style type="text/css">
	.st0{fill:#3753B9;fill-opacity:0;}
	.st1{fill:#3753B9;}
</style>
<title>S_FileSpace_24_N@1x</title>
<rect id="Canvas" x="5.1" y="5.5" class="st0" width="15" height="15"/>
<path class="st1" d="M12.6,6.8c-0.5,0-1.1,0.1-1.6,0.2l0.5,0.5C11.8,7.8,12,8.2,12,8.6v0.1c2.4-0.4,4.7,1.3,5,3.7
	c0.4,2.4-1.3,4.7-3.7,5s-4.7-1.3-5-3.7c-0.1-0.5-0.1-0.9,0-1.4H8.2c-0.4,0-0.8-0.2-1.1-0.5l-0.5-0.5C5.7,14.7,7.7,18.1,11,19
	c3.3,0.9,6.8-1.1,7.7-4.4c0.9-3.3-1.1-6.8-4.4-7.7C13.7,6.8,13.2,6.7,12.6,6.8z"/>
<path class="st1" d="M13.1,10.9c0.7,0.8,0.7,1.9-0.1,2.6c-0.7,0.7-1.9,0.7-2.6,0c0.3,1.2,1.5,1.9,2.6,1.6c1.2-0.3,1.9-1.5,1.6-2.6
	C14.6,11.7,13.9,11.1,13.1,10.9z"/>
<path class="st1" d="M7.7,5.8L7.1,7.4L5.4,8.1c-0.1,0-0.1,0.2-0.1,0.2c0,0,0,0,0,0.1L8,11c0.1,0.1,0.2,0.1,0.3,0.1l1.6,0l1.5,1.5
	c0.2,0.2,0.6,0.2,0.9,0c0.2-0.2,0.2-0.6,0-0.9l0,0l-1.5-1.5l0-1.6c0-0.1,0-0.2-0.1-0.3L8,5.8C8,5.7,7.9,5.7,7.7,5.8
	C7.8,5.8,7.7,5.8,7.7,5.8z"/>
</svg>
