<?xml version="1.0" encoding="utf-8"?>
<!-- Generator: Adobe Illustrator 23.0.6, SVG Export Plug-In . SVG Version: 6.00 Build 0)  -->
<svg version="1.1" id="S_Settings_24_N" xmlns="http://www.w3.org/2000/svg" xmlns:xlink="http://www.w3.org/1999/xlink" x="0px"
	 y="0px" viewBox="0 0 24 24" style="enable-background:new 0 0 24 24;" xml:space="preserve">
<style type="text/css">
	.st0{fill:#3753B9;fill-opacity:0;}
	.st1{fill:#3753B9;}
</style>
<rect id="Canvas" x="4.5" y="4.5" class="st0" width="15" height="15"/>
<path class="st1" d="M17.6,11h-0.9c-0.1,0-0.1,0-0.1-0.1c-0.1-0.4-0.3-0.9-0.5-1.2c0-0.1,0-0.1,0-0.2l0.7-0.7c0.2-0.2,0.2-0.6,0-0.9
	l-0.6-0.6c-0.2-0.2-0.6-0.2-0.9,0L14.6,8c0,0.1-0.1,0.1-0.2,0c-0.4-0.2-0.8-0.4-1.2-0.5c-0.1,0-0.1-0.1-0.1-0.1V6.4
	c0-0.3-0.3-0.6-0.6-0.6h-0.8C11.2,5.8,11,6,11,6.4v0.9c0,0.1,0,0.1-0.1,0.1C10.4,7.6,10,7.7,9.6,8C9.5,8,9.5,8,9.4,8L8.8,7.3
	C8.5,7,8.1,7,7.9,7.3L7.3,7.9C7,8.1,7,8.5,7.3,8.8L8,9.4C8,9.5,8,9.5,8,9.6c-0.2,0.4-0.4,0.8-0.5,1.2c0,0.1-0.1,0.1-0.1,0.1H6.4
	c-0.3,0-0.6,0.3-0.6,0.6v0.8C5.8,12.8,6,13,6.4,13h0.9c0.1,0,0.1,0,0.1,0.1C7.6,13.6,7.7,14,8,14.4c0,0.1,0,0.1,0,0.2l-0.7,0.7
	c-0.2,0.2-0.2,0.6,0,0.9l0.6,0.6c0.2,0.2,0.6,0.2,0.9,0L9.4,16c0-0.1,0.1-0.1,0.2,0c0.4,0.2,0.8,0.4,1.2,0.5c0.1,0,0.1,0.1,0.1,0.1
	v0.9c0,0.3,0.3,0.6,0.6,0.6h0.8c0.3,0,0.6-0.3,0.6-0.6v-0.9c0-0.1,0-0.1,0.1-0.1c0.4-0.1,0.9-0.3,1.2-0.5c0.1,0,0.1,0,0.2,0l0.7,0.7
	c0.2,0.2,0.6,0.2,0.9,0l0.6-0.6c0.2-0.2,0.2-0.6,0-0.9L16,14.6c-0.1,0-0.1-0.1,0-0.2c0.2-0.4,0.4-0.8,0.5-1.2c0-0.1,0.1-0.1,0.1-0.1
	h0.9c0.3,0,0.6-0.3,0.6-0.6v-0.8C18.2,11.2,18,11,17.6,11z M12,14.3c-1.3,0-2.3-1-2.3-2.3s1-2.3,2.3-2.3s2.3,1,2.3,2.3
	S13.3,14.3,12,14.3z"/>
</svg>
