<?xml version="1.0" encoding="utf-8"?>
<!-- Generator: Adobe Illustrator 23.0.6, SVG Export Plug-In . SVG Version: 6.00 Build 0)  -->
<svg version="1.1" id="S_LockClosed_24_N" xmlns="http://www.w3.org/2000/svg" xmlns:xlink="http://www.w3.org/1999/xlink" x="0px"
	 y="0px" viewBox="0 0 24 24" style="enable-background:new 0 0 24 24;" xml:space="preserve">
<style type="text/css">
	.st0{fill:#3753B9;fill-opacity:0;}
	.st1{fill:#3753B9;}
</style>
<rect id="Canvas" x="4.5" y="4.5" class="st0" width="15" height="15"/>
<path class="st1" d="M16.4,10.8h-0.6v-0.6c0-2.1-1.7-3.8-3.8-3.8s-3.8,1.7-3.8,3.8v0.6H7.6C7.3,10.8,7,11,7,11.4v6.2
	c0,0.3,0.3,0.6,0.6,0.6h8.8c0.3,0,0.6-0.3,0.6-0.6v-6.2C17,11,16.7,10.8,16.4,10.8z M12.6,15v1.1c0,0.2-0.1,0.3-0.3,0.3h-0.6
	c-0.2,0-0.3-0.1-0.3-0.3V15c-0.6-0.3-0.8-1.1-0.5-1.7c0.3-0.6,1.1-0.8,1.7-0.5c0.6,0.3,0.8,1.1,0.5,1.7C13,14.7,12.8,14.8,12.6,15z
	 M14.5,10.8h-5v-0.6c0-1.4,1.1-2.5,2.5-2.5s2.5,1.1,2.5,2.5V10.8z"/>
</svg>
