<?xml version="1.0" encoding="utf-8"?>
<!-- Generator: Adobe Illustrator 23.0.6, SVG Export Plug-In . SVG Version: 6.00 Build 0)  -->
<svg version="1.1" id="S_CallCenter_24_N" xmlns="http://www.w3.org/2000/svg" xmlns:xlink="http://www.w3.org/1999/xlink" x="0px"
	 y="0px" viewBox="0 0 24 24" style="enable-background:new 0 0 24 24;" xml:space="preserve">
<style type="text/css">
	.st0{fill:#3753B9;fill-opacity:0;}
	.st1{fill:#3753B9;}
</style>
<rect id="Canvas" x="4.5" y="4.5" class="st0" width="15" height="15"/>
<path class="st1" d="M17.6,10.8H17c0-2.8-2.2-5-5-5s-5,2.2-5,5H6.4c-0.7,0-1.2,0.6-1.2,1.2v2.5c0,0.7,0.6,1.2,1.2,1.2h1.9v-5h0
	C8.2,8.7,9.9,7,12,7c2.1,0,3.8,1.7,3.8,3.8h0v4.7c-0.6,1-1.5,1.7-2.7,2C12.8,17.2,12.4,17,12,17c-0.7,0-1.2,0.4-1.2,0.9
	s0.6,0.9,1.2,0.9c0.5,0,1-0.3,1.2-0.8c1.3-0.3,2.4-1.2,3.1-2.3h1.3c0.7,0,1.2-0.6,1.2-1.2V12C18.9,11.3,18.3,10.8,17.6,10.8z"/>
</svg>
