<?xml version="1.0" encoding="utf-8"?>
<!-- Generator: Adobe Illustrator 23.0.6, SVG Export Plug-In . SVG Version: 6.00 Build 0)  -->
<svg version="1.1" id="S_MagicWand_24_N" xmlns="http://www.w3.org/2000/svg" xmlns:xlink="http://www.w3.org/1999/xlink" x="0px"
	 y="0px" viewBox="0 0 24 24" style="enable-background:new 0 0 24 24;" xml:space="preserve">
<style type="text/css">
	.st0{fill:#3753B9;fill-opacity:0;}
	.st1{fill:#3753B9;}
</style>
<rect id="Canvas" x="4.5" y="4.5" class="st0" width="15" height="15"/>
<path class="st1" d="M17.4,10.4l0,0.9c0,0.3,0.2,0.5,0.4,0.6l0.8,0.4l-0.9,0c-0.3,0-0.5,0.2-0.6,0.4l-0.4,0.8l0-0.9
	c0-0.3-0.2-0.5-0.4-0.6l-0.8-0.4l0.9,0c0.3,0,0.5-0.2,0.6-0.4L17.4,10.4z"/>
<path class="st1" d="M16.6,4.5l0,1.2c0,0.4,0.2,0.7,0.5,0.8l1.1,0.6l-1.2,0c-0.4,0-0.7,0.2-0.8,0.5l-0.6,1.1l0-1.2
	c0-0.4-0.2-0.7-0.5-0.8l-1.1-0.6l1.2,0c0.4,0,0.7-0.2,0.8-0.5L16.6,4.5z"/>
<path class="st1" d="M9.6,5.5l0.1,1.6c0,0.5,0.3,0.9,0.7,1.1L11.7,9L10.1,9C9.6,9,9.2,9.3,9,9.7l-0.8,1.4L8.1,9.5
	c0-0.5-0.3-0.9-0.7-1.1L6.1,7.6l1.6-0.1c0.5,0,0.9-0.3,1.1-0.7L9.6,5.5z"/>
<path class="st1" d="M14.3,9.3l0.4,0.4c0.2,0.2,0.2,0.6,0,0.9l-7.9,7.9c-0.2,0.2-0.6,0.2-0.9,0l-0.4-0.4c-0.2-0.2-0.2-0.6,0-0.9
	l7.9-7.9C13.6,9,14,9,14.3,9.3z"/>
</svg>
