<?xml version="1.0" encoding="utf-8"?>
<!-- Generator: Adobe Illustrator 24.1.0, SVG Export Plug-In . SVG Version: 6.00 Build 0)  -->
<svg version="1.1" id="Layer_1" xmlns="http://www.w3.org/2000/svg" xmlns:xlink="http://www.w3.org/1999/xlink" x="0px" y="0px"
	 viewBox="0 0 40 40" style="enable-background:new 0 0 40 40;" xml:space="preserve">
<style type="text/css">
	.st0{fill:#FF13DC;fill-opacity:0;}
	.st1{fill:#6E6E6E;}
</style>
<rect id="Canvas" x="2.8" y="1.8" class="st0" width="35.8" height="35.8"/>
<ellipse class="st1" cx="20.6" cy="8.7" rx="15.9" ry="5"/>
<path class="st1" d="M20.6,25.9c-4.9,0-14.1-1.2-15.9-4v8.7c0,2.7,7.1,5,15.9,5s15.9-2.2,15.9-5v-8.7C34.1,25,25.5,25.9,20.6,25.9z"
	/>
<path class="st1" d="M20.6,15.9c-4.9,0-14.1-1.2-15.9-4v6.7c0,2.7,7.1,5,15.9,5s15.9-2.2,15.9-5V12C34.1,15,25.5,15.9,20.6,15.9z"/>
</svg>
