<?xml version="1.0" encoding="utf-8"?>
<!-- Generator: Adobe Illustrator 24.1.0, SVG Export Plug-In . SVG Version: 6.00 Build 0)  -->
<svg version="1.1" id="Layer_1" xmlns="http://www.w3.org/2000/svg" xmlns:xlink="http://www.w3.org/1999/xlink" x="0px" y="0px"
	 viewBox="0 0 40 40" style="enable-background:new 0 0 40 40;" xml:space="preserve">
<style type="text/css">
	.st0{fill:#FF13DC;fill-opacity:0;}
	.st1{fill:#6E6E6E;}
</style>
<rect id="Canvas" x="1" y="1" class="st0" width="37.6" height="37.6"/>
<path class="st1" d="M18.9,27.9h-2.2c-0.2-0.8-0.5-1.6-0.9-2.3l1.6-1.6c0.2-0.2,0.2-0.6,0-0.9l-1-1c-0.2-0.2-0.6-0.2-0.9,0l-1.6,1.6
	c-0.7-0.5-1.5-0.8-2.3-0.9v-2.2c0-0.3-0.3-0.6-0.6-0.6H9.7c-0.3,0-0.6,0.3-0.6,0.6l0,0v2.2c-0.8,0.2-1.6,0.5-2.3,0.9l-1.6-1.6
	c-0.2-0.2-0.6-0.2-0.9,0l-1,1c-0.2,0.2-0.2,0.6,0,0.9L5,25.6c-0.5,0.7-0.8,1.5-0.9,2.3H1.8c-0.3,0-0.6,0.3-0.6,0.6c0,0,0,0,0,0l0,0
	v1.3c0,0.3,0.3,0.6,0.6,0.6c0,0,0,0,0,0h2.2C4.2,31.2,4.5,32,5,32.7l-1.6,1.6c-0.2,0.2-0.2,0.6,0,0.9l1,1c0.2,0.2,0.6,0.2,0.9,0
	l1.6-1.6c0.7,0.5,1.5,0.8,2.3,0.9v2.2c0,0.3,0.3,0.6,0.6,0.6H11c0.3,0,0.6-0.3,0.6-0.6v-2.2c0.8-0.2,1.6-0.5,2.3-0.9l1.6,1.6
	c0.2,0.2,0.6,0.2,0.9,0l1-1c0.2-0.2,0.2-0.6,0-0.9l-1.6-1.6c0.5-0.7,0.8-1.5,0.9-2.3h2.2c0.3,0,0.6-0.3,0.6-0.6l0,0v-1.3
	C19.6,28.2,19.3,27.9,18.9,27.9L18.9,27.9L18.9,27.9z M10.4,32.5c-1.8,0-3.3-1.5-3.3-3.3c0-1.8,1.5-3.3,3.3-3.3
	c1.8,0,3.3,1.5,3.3,3.3c0,0,0,0,0,0l0,0C13.7,31,12.2,32.5,10.4,32.5z"/>
<path class="st1" d="M37.9,16.5L35,15.4c0.2-1.2,0.2-2.3,0-3.5l2.9-1.2c0.5-0.2,0.7-0.7,0.5-1.2l-0.8-1.8c-0.2-0.5-0.7-0.7-1.2-0.5
	v0l0,0l-2.9,1.2c-0.7-1-1.5-1.8-2.5-2.5L32.2,3c0.2-0.5,0-1-0.5-1.2L30,1.2c-0.5-0.2-1,0-1.2,0.5l-1.2,2.9c-1.2-0.2-2.3-0.2-3.5,0
	l-1.2-2.9c-0.2-0.5-0.7-0.7-1.2-0.5c0,0,0,0,0,0l0,0L20,1.9c-0.5,0.2-0.7,0.7-0.5,1.2l1.2,2.9c-1,0.7-1.8,1.5-2.5,2.5l-2.9-1.2
	c-0.5-0.2-1,0-1.2,0.5l-0.7,1.7c-0.2,0.5,0,1,0.5,1.2l2.9,1.2c-0.2,1.2-0.2,2.3,0,3.5L14,16.6c-0.5,0.2-0.7,0.7-0.5,1.2l0.7,1.8
	c0.2,0.5,0.7,0.7,1.2,0.5h0l0,0l2.9-1.2c0.7,1,1.5,1.8,2.5,2.5l-1.2,2.9c-0.2,0.5,0,1,0.5,1.2l1.7,0.7c0.5,0.2,1,0,1.2-0.5l1.2-2.9
	c1.2,0.2,2.3,0.2,3.5,0l1.2,2.9c0.2,0.5,0.7,0.7,1.2,0.5c0,0,0,0,0,0l0,0l1.8-0.7c0.5-0.2,0.7-0.7,0.5-1.2l-1.2-2.9
	c1-0.7,1.8-1.5,2.5-2.5l2.9,1.2c0.5,0.2,1,0,1.2-0.5l0,0l0.7-1.7C38.6,17.3,38.3,16.7,37.9,16.5C37.9,16.5,37.9,16.5,37.9,16.5
	L37.9,16.5z M25.9,18c-2.4,0-4.4-2-4.4-4.4c0-2.4,2-4.4,4.4-4.4c2.4,0,4.4,2,4.4,4.4v0C30.3,16,28.3,18,25.9,18z"/>
</svg>
